<?xml version="1.0" standalone="no"?>
<!DOCTYPE svg PUBLIC "-//W3C//DTD SVG 20010904//EN"
 "http://www.w3.org/TR/2001/REC-SVG-20010904/DTD/svg10.dtd">
<svg version="1.0" xmlns="http://www.w3.org/2000/svg"
 width="1024.000000pt" height="1024.000000pt" viewBox="0 0 1024.000000 1024.000000"
 preserveAspectRatio="xMidYMid meet">

<g transform="translate(0.000000,1024.000000) scale(0.100000,-0.100000)"
fill="#000000" stroke="none">
<path d="M5930 8388 c-52 -15 -86 -43 -109 -91 -59 -121 22 -257 152 -257 75
0 142 41 176 107 16 31 14 119 -4 152 -20 39 -69 78 -113 91 -43 12 -55 12
-102 -2z"/>
<path d="M6697 8222 c-32 -35 -10 -102 34 -102 28 0 59 31 59 59 0 53 -60 80
-93 43z"/>
<path d="M4972 8146 c-87 -22 -201 -85 -484 -268 -242 -156 -564 -364 -1043
-671 -93 -60 -186 -123 -205 -140 -95 -83 -170 -220 -190 -347 -8 -54 -10
-329 -8 -1000 l3 -925 29 -82 c17 -49 33 -80 39 -76 6 3 7 1 3 -5 -9 -14 22
-75 34 -67 5 3 12 0 16 -6 4 -8 3 -9 -4 -5 -25 15 -11 -23 16 -44 15 -12 27
-25 27 -28 0 -4 4 -6 8 -4 5 1 6 -1 3 -6 -7 -11 68 -85 77 -76 4 4 7 2 7 -4 0
-16 90 -73 102 -66 6 4 8 2 5 -3 -9 -14 61 -56 75 -47 6 4 8 2 4 -4 -3 -6 38
-38 101 -78 60 -37 137 -86 173 -109 79 -51 442 -283 527 -337 34 -22 67 -37
73 -33 6 4 9 1 8 -6 -2 -6 3 -14 11 -17 9 -3 11 0 6 8 -5 9 -4 11 4 6 6 -4 9
-11 6 -16 -5 -9 85 -70 103 -70 7 0 12 -3 12 -7 0 -5 14 -16 31 -25 16 -10 27
-13 23 -7 -4 7 3 6 17 -1 32 -17 39 -25 14 -16 -12 4 -16 4 -10 -2 18 -15 135
-92 141 -92 3 0 19 -9 35 -21 16 -11 34 -17 40 -13 8 5 9 3 4 -6 -6 -10 -4
-12 9 -7 9 4 15 3 12 -2 -7 -11 22 -23 36 -14 6 3 8 2 5 -4 -9 -14 41 -35 67
-28 14 4 17 3 8 -3 -34 -23 212 -42 293 -21 22 5 51 12 64 15 45 9 59 25 17
18 -34 -6 -38 -5 -33 10 4 11 3 15 -4 11 -23 -15 -37 18 -43 105 -6 68 -11 90
-22 90 -9 0 -14 11 -14 35 0 34 -1 35 -42 36 -38 1 -40 2 -18 10 20 7 17 7
-15 4 -22 -2 -58 0 -80 4 l-40 9 40 2 c35 2 37 3 15 10 -18 6 -3 8 50 9 80 1
166 19 237 51 47 21 328 204 338 220 4 6 -6 10 -22 11 -25 0 -26 1 -8 10 17 8
16 9 -7 6 -16 -3 -28 0 -28 5 0 5 -6 8 -12 5 -7 -2 -12 -9 -11 -15 2 -6 -4 -9
-12 -5 -19 6 -5 26 30 46 13 6 164 106 337 221 172 115 363 240 423 278 160
101 247 192 302 316 52 117 53 133 53 892 0 782 0 774 -66 900 -51 97 -152
192 -311 294 -73 47 -157 100 -185 119 -29 19 -93 60 -143 92 -194 125 -491
320 -515 338 -22 17 -23 19 -5 17 33 -4 38 -1 24 16 -11 14 -11 18 4 29 21 15
22 29 1 21 -8 -3 -13 -2 -10 3 5 8 -101 84 -188 134 -39 23 -54 37 -40 37 6 0
11 6 11 13 1 6 4 30 7 52 6 36 10 88 20 223 2 23 -1 42 -6 42 -4 0 -8 4 -8 9
0 5 9 7 20 4 40 -10 19 13 -27 31 -63 24 -264 31 -341 12z m1093 -1513 c139
-89 218 -190 244 -311 7 -35 11 -230 11 -588 0 -515 -1 -537 -21 -596 -29 -86
-88 -166 -167 -225 -37 -27 -163 -110 -280 -184 -118 -74 -280 -176 -360 -227
-222 -142 -235 -147 -367 -147 -106 0 -113 1 -188 37 -52 25 -76 42 -71 49 4
8 3 9 -4 5 -10 -6 -194 105 -445 269 l-87 56 1 137 c1 117 3 128 10 77 4 -33
5 -88 2 -121 -3 -34 -1 -64 4 -67 5 -3 8 8 6 26 -3 29 -2 30 7 9 5 -13 8 -35
6 -49 -4 -20 0 -26 25 -35 16 -5 29 -13 29 -17 0 -4 12 -13 26 -20 21 -9 30
-9 42 1 13 11 14 11 8 -1 -6 -9 -5 -12 5 -9 21 8 51 -11 45 -28 -3 -8 -1 -14
4 -14 6 0 9 -3 9 -7 -3 -20 2 -24 16 -13 9 7 18 10 22 6 3 -3 1 -6 -6 -6 -9 0
-9 -5 -1 -20 6 -11 20 -20 30 -20 11 0 29 -9 40 -20 11 -11 25 -18 32 -16 7 1
10 1 5 -1 -14 -8 4 -22 21 -17 13 5 14 4 4 -4 -11 -8 -11 -10 1 -15 16 -6 17
9 4 31 -6 8 -1 12 16 12 13 0 27 3 31 7 10 10 100 3 104 -8 2 -5 26 -9 52 -9
39 0 52 4 60 20 6 11 20 20 30 20 13 0 20 7 20 19 0 14 10 21 35 25 20 4 40 4
47 0 6 -4 8 -3 5 3 -4 6 -25 13 -47 16 -23 3 -60 18 -83 33 -23 16 -45 29 -49
29 -3 0 -10 4 -15 9 -5 5 -2 6 6 1 7 -4 12 -4 9 1 -35 72 -40 92 -36 145 6 77
40 128 109 163 88 44 168 30 242 -42 59 -57 74 -150 38 -235 -14 -33 -16 -44
-6 -44 7 0 11 6 8 12 -2 7 3 19 11 28 9 9 16 24 17 34 0 15 2 14 9 -4 10 -25
22 -31 19 -10 -4 30 2 45 19 43 25 -2 51 83 52 172 0 86 12 105 59 96 24 -5
31 -3 31 9 0 9 -6 17 -12 20 -7 2 -5 3 5 2 10 -2 17 3 17 12 0 13 3 13 15 3
10 -8 15 -9 15 -2 0 6 6 9 14 6 10 -4 15 5 18 30 2 20 1 36 -3 36 -4 0 -3 17
2 38 14 60 12 63 -33 37 -81 -46 -147 -28 -216 61 -68 87 -188 121 -312 90
-71 -19 -118 -49 -149 -99 -29 -48 -93 -81 -142 -74 -22 3 -51 13 -65 22 -36
23 -67 97 -59 138 25 116 193 268 348 312 131 38 317 14 433 -56 67 -40 176
-147 194 -189 7 -17 17 -30 22 -30 6 0 9 -26 6 -64 -2 -36 0 -62 4 -60 4 3 8
15 8 27 0 12 5 29 11 37 8 12 9 8 5 -15 l-5 -30 12 28 c6 15 15 27 20 27 4 0
6 9 2 19 -4 13 1 25 17 36 13 10 16 15 6 12 -26 -9 -28 3 -5 29 11 13 28 22
36 19 9 -2 23 0 31 6 11 8 9 9 -9 4 -21 -6 -22 -5 -10 8 12 14 17 14 37 1 13
-9 29 -13 35 -10 7 2 5 5 -4 5 -9 1 -22 8 -29 16 -16 19 -25 19 -45 -1 -9 -9
-19 -14 -22 -10 -4 3 2 13 13 20 19 14 19 15 -4 43 -12 15 -33 44 -46 63 -37
56 -159 165 -233 208 -111 66 -189 87 -323 87 -100 0 -126 -4 -204 -29 -144
-47 -263 -137 -379 -283 -62 -79 -98 -103 -149 -103 -105 0 -167 109 -122 216
39 94 184 257 294 331 245 164 514 215 785 148 186 -46 395 -180 525 -336 l50
-61 -2 435 -3 435 40 -20 c22 -12 72 -41 110 -65z m-409 -1195 c4 -7 3 -8 -4
-4 -7 4 -12 2 -12 -5 0 -7 -3 -10 -6 -6 -6 5 3 27 11 27 2 0 7 -5 11 -12z
m-1319 -310 c-3 -8 -6 -5 -6 6 -1 11 2 17 5 13 3 -3 4 -12 1 -19z m58 -327 c3
-5 2 -12 -3 -15 -5 -3 -9 1 -9 9 0 17 3 19 12 6z m-859 -90 c24 -21 59 -46 76
-55 33 -15 33 -16 6 -16 -29 0 -101 50 -126 88 -22 33 -6 27 44 -17z m1463
-30 c13 -9 9 -13 -21 -24 -14 -5 -17 4 -9 31 2 5 16 1 30 -7z m52 -30 c-8 -5
-20 -7 -28 -4 -21 8 -15 13 15 13 20 0 23 -3 13 -9z m-365 -59 c-6 -5 -36 23
-36 34 0 4 9 -1 20 -11 11 -10 18 -20 16 -23z m294 -886 c0 -3 -4 -8 -10 -11
-5 -3 -10 -1 -10 4 0 6 5 11 10 11 6 0 10 -2 10 -4z m-270 -200 c-7 -7 -13 -7
-20 0 -6 6 -3 10 10 10 13 0 16 -4 10 -10z m493 -153 c-7 -2 -21 -2 -30 0 -10
3 -4 5 12 5 17 0 24 -2 18 -5z"/>
<path d="M4486 4688 c3 -5 12 -7 20 -4 10 4 14 0 12 -11 -2 -9 3 -17 10 -19 8
-1 8 0 1 3 -8 4 -7 8 2 14 7 4 11 11 7 14 -10 11 -58 13 -52 3z"/>
<path d="M4760 4550 c-12 -8 -12 -10 -1 -10 11 0 11 -3 0 -17 -13 -16 -12 -17
3 -5 9 8 21 11 27 8 5 -3 8 2 7 11 -3 21 -16 26 -36 13z"/>
<path d="M2977 8106 c-87 -31 -156 -100 -187 -187 -12 -32 -19 -38 -53 -43
-179 -29 -261 -235 -143 -364 50 -56 116 -64 336 -42 l75 7 -55 3 c-46 2 -50
4 -25 9 25 6 18 9 -40 15 -38 5 -63 11 -55 13 42 12 41 12 25 37 -10 15 -14
33 -10 46 5 16 2 23 -12 26 -29 8 -44 39 -33 68 11 29 42 40 117 41 50 0 53 2
53 25 0 30 31 96 60 129 11 14 44 32 73 42 29 10 46 18 40 19 -15 0 -13 21 2
32 6 5 4 8 -5 8 -12 0 -12 2 -2 9 10 6 11 17 4 42 -10 38 2 59 35 59 15 0 16
2 3 10 -22 14 -159 11 -203 -4z m-187 -456 c0 -5 -4 -10 -10 -10 -5 0 -10 5
-10 10 0 6 5 10 10 10 6 0 10 -4 10 -10z m-83 -112 c-3 -7 -5 -2 -5 12 0 14 2
19 5 13 2 -7 2 -19 0 -25z"/>
<path d="M5370 8106 c0 -3 9 -10 20 -16 11 -6 20 -8 20 -6 0 3 -9 10 -20 16
-11 6 -20 8 -20 6z"/>
<path d="M7155 7921 c-61 -17 -87 -32 -134 -76 -154 -144 -118 -396 71 -487
96 -46 187 -44 289 8 174 87 211 328 72 470 -67 69 -208 110 -298 85z"/>
<path d="M5548 7562 c-10 -2 -18 -8 -18 -13 0 -13 27 -11 35 2 9 13 4 16 -17
11z"/>
<path d="M5557 7520 c10 -11 10 -17 0 -28 -10 -13 -9 -14 10 -1 12 7 21 14 20
14 -1 0 -11 7 -22 15 -16 11 -18 11 -8 0z"/>
<path d="M2496 6300 c-51 -26 -51 -26 -35 -47 12 -16 12 -17 -2 -5 -20 15 -31
4 -49 -51 -26 -81 26 -181 108 -205 50 -15 65 -15 56 0 -4 7 -3 8 5 4 6 -4 25
-4 43 -1 19 5 26 10 19 15 -7 4 -15 27 -17 51 -3 24 -12 51 -19 59 -7 8 -16
27 -20 42 -4 14 -14 34 -24 45 -9 10 -20 26 -24 36 -5 12 -15 17 -33 15 -15
-2 -29 2 -31 8 -4 13 31 27 62 25 16 -2 17 0 6 8 -11 7 -8 10 15 14 25 3 26 4
4 5 -14 1 -43 -8 -64 -18z"/>
<path d="M2490 6270 c-8 -5 -10 -10 -5 -10 6 0 17 5 25 10 8 5 11 10 5 10 -5
0 -17 -5 -25 -10z"/>
<path d="M2646 6072 c-2 -4 -1 -14 4 -22 7 -11 9 -9 7 8 -1 24 -3 26 -11 14z"/>
<path d="M7618 5753 c6 -2 18 -2 25 0 6 3 1 5 -13 5 -14 0 -19 -2 -12 -5z"/>
<path d="M7541 5719 c-23 -19 -23 -19 -2 -19 14 0 20 4 15 11 -4 8 1 9 17 4
13 -3 20 -3 14 2 -5 5 -12 11 -15 15 -3 3 -16 -2 -29 -13z"/>
<path d="M7499 5663 c-6 -16 -9 -54 -6 -87 4 -49 11 -64 38 -92 19 -19 39 -32
47 -29 7 2 10 0 7 -5 -4 -6 14 -10 44 -10 49 0 57 6 51 35 -1 5 7 16 17 23 17
14 17 14 -1 8 -13 -4 -17 -2 -13 7 4 10 -2 13 -19 9 -17 -3 -24 0 -24 11 0 9
-12 25 -26 36 -14 11 -23 25 -20 30 4 5 1 13 -5 17 -8 4 -9 3 -5 -4 4 -7 1
-12 -7 -12 -10 0 -13 7 -10 18 2 10 -3 24 -11 31 -9 8 -16 10 -16 7 0 -4 -6
-1 -14 6 -12 11 -11 14 3 20 14 6 14 7 -2 7 -10 1 -22 -10 -28 -26z"/>
<path d="M7714 5464 c-18 -14 -18 -15 4 -4 12 6 22 13 22 15 0 8 -5 6 -26 -11z"/>
<path d="M2526 5339 c-90 -21 -141 -93 -134 -190 5 -70 41 -122 102 -150 54
-24 100 -24 153 2 60 29 95 78 101 140 12 130 -96 227 -222 198z"/>
<path d="M7670 4993 c-97 -37 -142 -168 -90 -261 27 -47 100 -92 152 -92 55 0
139 48 165 95 25 44 31 122 12 158 -17 32 -60 77 -91 93 -26 14 -118 18 -148
7z"/>
<path d="M2589 4661 c-51 -41 -11 -141 51 -126 61 16 81 82 37 123 -29 27 -57
28 -88 3z"/>
<path d="M2805 4260 c-41 -20 -75 -66 -75 -101 0 -16 -7 -19 -40 -19 -47 0
-95 -22 -110 -49 -14 -27 -12 -93 4 -113 12 -16 37 -18 274 -18 161 0 263 4
267 10 3 5 0 8 -7 5 -7 -2 -29 0 -48 4 -19 5 -29 9 -22 10 14 1 17 31 2 31 -5
0 -10 9 -10 19 0 10 -7 22 -16 25 -9 3 -12 11 -8 18 5 7 2 9 -8 5 -17 -6 -57
25 -59 46 -1 7 -2 17 -3 22 0 6 -19 29 -42 52 -32 34 -45 41 -64 36 -15 -4
-21 -2 -17 4 9 14 66 22 64 10 -1 -5 5 -12 13 -14 13 -4 13 -3 0 6 -13 10 -13
11 0 11 13 0 13 1 0 10 -23 15 -51 12 -95 -10z"/>
<path d="M2960 4131 c0 -6 4 -12 8 -15 5 -3 9 1 9 9 0 8 -4 15 -9 15 -4 0 -8
-4 -8 -9z"/>
<path d="M3001 4114 c0 -11 3 -14 6 -6 3 7 2 16 -1 19 -3 4 -6 -2 -5 -13z"/>
<path d="M3020 4120 c0 -13 30 -13 50 0 11 7 7 10 -17 10 -18 0 -33 -4 -33
-10z"/>
<path d="M6825 4001 c-54 -14 -112 -50 -149 -93 -114 -133 -72 -344 85 -424
68 -34 122 -40 192 -19 62 18 72 25 30 22 -15 -1 -28 3 -28 8 -1 6 -7 27 -15
47 -11 31 -16 35 -28 25 -13 -10 -14 -8 -8 11 6 16 3 22 -8 22 -9 0 -16 9 -16
21 0 11 -4 18 -9 15 -9 -6 -13 5 -32 74 -16 59 -12 202 6 246 9 21 21 42 28
46 15 10 -5 9 -48 -1z"/>
<path d="M5258 3713 c7 -3 16 -2 19 1 4 3 -2 6 -13 5 -11 0 -14 -3 -6 -6z"/>
<path d="M5193 3703 c9 -2 23 -2 30 0 6 3 -1 5 -18 5 -16 0 -22 -2 -12 -5z"/>
<path d="M3136 3651 c-26 -29 -18 -82 17 -101 24 -13 30 -13 54 0 63 35 48
120 -21 120 -20 0 -40 -8 -50 -19z"/>
<path d="M3799 3563 c-13 -16 -12 -17 4 -4 16 13 21 21 13 21 -2 0 -10 -8 -17
-17z"/>
<path d="M6965 3500 c-3 -6 1 -7 9 -4 18 7 21 14 7 14 -6 0 -13 -4 -16 -10z"/>
<path d="M6125 3475 c-14 -13 -25 -34 -25 -45 0 -35 29 -79 55 -86 31 -8 82
12 95 37 28 52 -12 119 -70 119 -19 0 -40 -9 -55 -25z"/>
<path d="M5281 3448 c0 -18 3 -27 6 -20 2 6 11 12 19 12 21 0 17 18 -6 30 -18
10 -20 8 -19 -22z"/>
<path d="M3744 3416 c4 -56 35 -111 64 -112 18 -1 20 2 11 17 -7 13 -6 19 1
19 6 0 8 5 4 12 -4 6 -3 8 3 5 6 -4 9 -25 7 -47 -2 -23 1 -38 6 -35 5 3 11 1
15 -5 8 -12 65 -14 65 -1 0 4 -12 6 -27 4 l-28 -4 23 14 c22 13 22 14 6 28 -9
8 -19 13 -21 12 -15 -11 -32 0 -30 19 1 17 -4 24 -20 26 -20 3 -22 0 -19 -27
2 -17 -1 -31 -5 -31 -8 0 -13 16 -7 23 2 1 -5 13 -15 27 -9 13 -17 39 -17 57
0 17 -4 35 -10 38 -6 4 -8 -12 -6 -39z"/>
<path d="M5385 3404 c-30 -25 -30 -25 -3 -13 15 6 29 18 32 25 7 18 6 18 -29
-12z"/>
<path d="M2900 2814 l0 -196 -37 32 c-64 56 -115 73 -207 68 -98 -5 -162 -36
-232 -110 -182 -195 -124 -523 114 -640 58 -29 77 -33 142 -33 86 0 128 17
184 71 l36 35 0 -51 0 -50 113 0 112 0 2 535 2 535 -115 0 -114 0 0 -196z
m-98 -343 c45 -29 88 -95 88 -137 0 -43 -24 -100 -54 -130 -83 -83 -218 -58
-267 50 -25 55 -24 102 4 156 46 92 141 117 229 61z"/>
<path d="M4437 2995 c-46 -16 -64 -30 -83 -66 -28 -55 -9 -142 39 -174 92 -60
217 7 217 117 0 86 -92 151 -173 123z"/>
<path d="M3287 2980 c-118 -93 -36 -283 105 -241 23 7 54 26 70 41 24 24 28
36 28 84 0 50 -4 61 -33 93 -29 31 -41 37 -88 41 -45 3 -59 0 -82 -18z"/>
<path d="M5150 2716 c-88 -21 -129 -44 -190 -104 -59 -60 -84 -105 -106 -187
-49 -182 47 -381 224 -463 50 -23 70 -26 162 -27 99 0 109 2 170 32 36 18 85
50 110 72 l45 39 -60 62 c-82 84 -88 86 -130 55 -86 -66 -180 -64 -246 5 -62
65 -72 171 -21 239 64 87 168 95 261 22 l36 -29 30 26 c17 15 52 46 79 70 l49
42 -29 31 c-40 42 -106 87 -153 104 -60 21 -168 26 -231 11z"/>
<path d="M5957 2720 c-120 -21 -230 -109 -290 -229 -30 -61 -32 -73 -32 -166
0 -93 2 -105 33 -167 39 -79 115 -153 200 -195 51 -25 68 -28 162 -28 94 0
111 3 164 28 198 92 288 289 226 488 -59 189 -260 306 -463 269z m150 -227
c73 -34 115 -130 93 -211 -35 -133 -196 -178 -287 -80 -29 30 -53 89 -53 128
0 39 24 97 53 129 47 50 129 65 194 34z"/>
<path d="M7480 2720 c-115 -24 -217 -106 -273 -219 -30 -62 -32 -72 -32 -176
0 -98 3 -116 26 -165 38 -82 109 -154 187 -192 63 -31 72 -33 177 -33 103 0
114 2 175 31 36 17 83 47 105 67 l40 35 -45 40 c-93 81 -108 93 -115 82 -3 -6
-25 -20 -48 -32 -53 -27 -139 -29 -184 -5 -33 17 -83 65 -83 79 0 5 124 8 276
8 l276 0 -4 93 c-6 130 -32 193 -117 278 -48 48 -81 71 -122 87 -66 24 -176
35 -239 22z m137 -211 c30 -11 79 -53 94 -81 9 -17 -1 -18 -146 -18 -88 0
-155 4 -155 9 0 18 49 68 82 84 38 19 85 21 125 6z"/>
<path d="M3798 2710 c-47 -14 -95 -48 -147 -105 -168 -185 -112 -502 107 -603
95 -43 169 -39 247 14 l37 25 -6 -28 c-18 -77 -65 -105 -166 -101 -61 2 -88 9
-141 36 -37 17 -69 32 -72 32 -7 0 -107 -137 -107 -147 0 -5 21 -22 48 -40
117 -78 218 -108 332 -100 101 8 160 30 220 84 106 96 119 160 120 601 l0 322
-115 0 -115 0 0 -25 0 -25 -21 21 c-44 44 -145 62 -221 39z m180 -236 c40 -24
64 -61 70 -109 9 -84 -32 -149 -105 -165 -137 -32 -213 178 -97 269 32 25 95
28 132 5z"/>
<path d="M6560 2323 l0 -383 110 0 110 0 0 210 c0 230 5 259 55 298 33 27 90
29 138 6 l34 -16 72 50 c40 28 78 53 84 55 20 6 -62 106 -110 134 -76 44 -168
28 -232 -41 -26 -28 -43 -34 -40 -13 1 6 1 28 0 47 l-1 35 -110 0 -110 0 0
-382z"/>
<path d="M3240 2295 l0 -355 115 0 115 0 0 355 0 355 -115 0 -115 0 0 -355z"/>
<path d="M4361 2328 c0 -178 3 -338 6 -355 l5 -33 109 0 109 0 0 355 0 355
-115 0 -116 0 2 -322z"/>
</g>
</svg>
