<?xml version="1.0" standalone="no"?>
<!DOCTYPE svg PUBLIC "-//W3C//DTD SVG 20010904//EN"
 "http://www.w3.org/TR/2001/REC-SVG-20010904/DTD/svg10.dtd">
<svg version="1.0" xmlns="http://www.w3.org/2000/svg"
 width="853.000000pt" height="858.000000pt" viewBox="0 0 853.000000 858.000000"
 preserveAspectRatio="xMidYMid meet">

<g transform="translate(0.000000,858.000000) scale(0.100000,-0.100000)"
fill="#000000" stroke="none">
<path d="M1990 8564 c0 -8 5 -12 11 -8 7 4 7 -1 -1 -16 -13 -24 -4 -43 10 -20
5 8 12 12 15 8 12 -12 7 -88 -7 -110 -17 -26 -35 -132 -19 -108 6 8 11 10 11
5 0 -6 -5 -16 -10 -21 -6 -6 -13 -21 -15 -34 -2 -13 -9 -26 -15 -30 -8 -5 -8
-15 0 -34 7 -20 7 -25 -1 -20 -16 9 -29 -15 -29 -53 0 -20 -5 -33 -12 -33 -7
0 -5 -5 5 -11 11 -6 17 -22 17 -43 0 -19 9 -41 21 -54 11 -12 18 -26 15 -31
-3 -4 3 -17 14 -28 10 -12 16 -23 13 -26 -3 -3 7 -21 22 -41 24 -31 24 -35 8
-39 -17 -4 -17 -5 1 -6 11 -1 16 -6 13 -15 -3 -7 -1 -18 5 -24 8 -8 8 -16 -2
-27 -10 -12 -10 -15 5 -15 14 0 15 -3 5 -15 -7 -8 -8 -15 -3 -15 4 0 7 -19 5
-41 -3 -24 0 -39 5 -36 5 3 10 -3 10 -14 1 -11 -2 -17 -8 -14 -13 9 -11 -9 4
-24 10 -11 10 -13 0 -7 -15 8 -18 -10 -3 -19 7 -4 6 -14 -1 -28 -9 -16 -9 -22
0 -25 13 -4 15 -78 2 -87 -6 -3 -9 -14 -8 -24 1 -16 5 -18 20 -9 16 8 17 7 8
-10 -8 -16 -5 -26 20 -53 28 -31 44 -58 48 -84 1 -5 9 -20 16 -32 8 -12 16
-30 18 -40 1 -10 5 -22 8 -28 4 -5 9 -23 13 -40 11 -46 26 -10 28 67 1 38 9
81 21 108 11 25 21 58 21 74 1 16 7 31 14 34 6 2 10 8 6 13 -3 5 0 9 5 9 6 0
11 5 11 11 0 7 -10 9 -27 4 l-28 -7 28 29 c26 28 37 50 19 39 -5 -3 -8 3 -7
12 3 30 16 62 26 62 14 0 11 28 -7 55 l-16 25 33 -6 c28 -4 31 -3 16 6 -14 9
-16 15 -6 26 6 8 9 17 6 20 -11 12 -43 -7 -91 -53 -63 -61 -48 -34 27 47 31
35 57 69 57 76 0 7 6 14 13 17 9 3 9 7 -2 20 -12 15 -11 17 7 17 27 0 36 15
23 38 -12 23 3 42 34 42 20 1 20 1 0 15 -19 15 -19 16 -2 45 10 17 15 35 10
43 -4 6 -8 17 -9 23 -1 6 -5 26 -9 43 -6 30 8 45 18 19 2 -8 8 -9 13 -4 5 5 4
11 -3 13 -21 8 -15 24 20 54 38 34 34 35 -33 9 -39 -16 -50 -17 -50 -6 0 15
21 26 49 26 9 0 26 7 37 16 10 8 13 13 7 9 -22 -11 -34 4 -23 26 8 14 8 19 -1
17 -6 -2 -14 3 -16 10 -3 6 0 12 6 12 6 0 11 7 11 15 0 8 -3 14 -7 13 -5 -2
-8 1 -8 7 0 5 8 8 18 7 9 -2 17 2 17 7 0 6 -4 11 -9 11 -5 0 -16 16 -25 35
-11 23 -23 35 -34 33 -12 -2 -18 5 -20 27 -2 17 -8 35 -13 42 -7 8 -5 12 6 15
15 3 14 6 -5 31 -18 22 -19 27 -6 27 12 0 15 6 10 25 -4 15 -2 25 5 25 6 0 11
5 11 10 0 6 -75 10 -205 10 -179 0 -205 -2 -205 -16z m420 -223 c0 -6 -4 -12
-8 -15 -5 -3 -9 1 -9 9 0 8 4 15 9 15 4 0 8 -4 8 -9z m30 -31 c0 -5 -4 -10
-10 -10 -5 0 -10 5 -10 10 0 6 5 10 10 10 6 0 10 -4 10 -10z m-20 -319 c0 -5
-7 -12 -16 -15 -24 -9 -28 -7 -14 9 14 17 30 20 30 6z"/>
<path d="M7635 8570 c3 -5 8 -10 11 -10 2 0 4 5 4 10 0 6 -5 10 -11 10 -5 0
-7 -4 -4 -10z"/>
<path d="M7673 8565 c-26 -19 -9 -49 24 -40 22 5 25 4 14 -8 -9 -12 -8 -16 5
-21 27 -10 33 -7 28 19 -2 14 -1 25 4 25 4 0 8 9 8 20 0 15 -7 19 -33 18 -19
-1 -41 -7 -50 -13z"/>
<path d="M3978 8475 c-3 -3 -32 -6 -66 -7 -34 -1 -59 -5 -56 -10 3 -4 1 -8 -5
-8 -5 0 -11 4 -13 9 -4 11 -138 -17 -138 -29 0 -5 -15 -11 -32 -15 -18 -4 -62
-19 -98 -35 -36 -15 -95 -40 -132 -56 -37 -15 -70 -34 -72 -41 -3 -8 1 -10 12
-6 15 5 15 3 -2 -13 -13 -14 -20 -15 -23 -6 -3 6 -11 12 -18 12 -14 0 -92 -78
-109 -108 -9 -15 -8 -16 10 -3 10 8 34 28 52 45 46 43 40 26 -12 -29 -25 -28
-42 -54 -39 -64 2 -9 -5 -22 -17 -29 -17 -10 -20 -10 -20 4 0 8 -4 12 -10 9
-5 -3 -10 -13 -10 -22 0 -14 -34 -52 -49 -54 -25 -3 -56 -10 -59 -14 -3 -3 6
-9 19 -14 20 -8 21 -10 5 -10 -11 -1 -28 -9 -38 -18 -14 -12 -17 -13 -13 -2 4
10 -2 14 -20 14 -14 0 -25 -6 -25 -12 0 -15 -10 -16 -30 -3 -13 9 -13 10 0 10
12 0 13 2 1 9 -17 11 -53 2 -45 -11 4 -6 -5 -8 -25 -3 -32 7 -40 -2 -19 -23 8
-8 9 -12 1 -12 -6 0 -13 5 -15 10 -5 17 -124 -35 -190 -84 -49 -35 -30 -36 29
0 31 19 65 34 76 34 12 0 16 4 11 13 -6 9 -5 9 7 0 8 -6 31 -10 51 -8 21 2 40
-1 43 -6 4 -5 1 -9 -5 -9 -13 0 -103 -60 -108 -71 -2 -4 -10 -5 -18 -2 -8 3
-14 -1 -14 -10 0 -9 -21 -34 -47 -57 -27 -24 -34 -33 -16 -21 56 38 48 22 -25
-49 -40 -39 -72 -76 -72 -84 0 -7 -9 -21 -20 -31 -13 -12 -17 -22 -11 -28 7
-7 2 -20 -14 -39 -25 -30 -32 -48 -17 -48 4 0 13 -4 21 -9 10 -7 8 -18 -13
-56 -20 -35 -23 -46 -12 -42 9 4 16 4 16 2 0 -3 -25 -42 -56 -87 -31 -46 -57
-88 -58 -94 -1 -7 -8 -19 -15 -28 -11 -13 -10 -18 2 -30 17 -17 37 -3 37 25 0
9 7 19 15 23 13 4 14 2 5 -14 -6 -11 -9 -24 -6 -29 3 -5 -1 -14 -9 -21 -19
-16 -19 -30 0 -30 18 0 20 -55 4 -97 -6 -15 -13 -59 -14 -98 -5 -116 -18 -185
-35 -185 -6 0 -6 -10 -1 -22 4 -13 6 -29 4 -35 -3 -7 1 -13 8 -13 7 0 5 -6 -7
-15 -14 -11 -15 -14 -4 -15 8 0 20 -11 27 -25 10 -22 9 -25 -5 -23 -13 2 -18
-6 -20 -29 -2 -21 1 -33 9 -33 8 0 8 -4 -1 -15 -7 -9 -10 -18 -7 -21 5 -5 -3
-39 -19 -78 -5 -14 -4 -17 5 -12 8 5 11 -1 10 -21 -1 -15 1 -49 6 -75 5 -33 4
-48 -4 -48 -6 0 -11 -7 -11 -15 0 -9 9 -15 21 -15 17 0 20 -5 17 -25 -3 -14
-1 -28 4 -31 4 -3 6 -9 3 -14 -3 -5 -1 -12 5 -15 8 -5 8 -11 0 -20 -7 -8 -9
-23 -5 -35 3 -11 2 -20 -3 -20 -16 0 -5 -93 13 -107 10 -6 14 -16 10 -22 -3
-7 3 -11 15 -11 16 0 20 -4 16 -16 -3 -9 -6 -44 -6 -79 l0 -63 -42 -15 c-122
-41 -141 -45 -162 -37 -17 7 -18 9 -3 9 20 1 23 27 5 34 -10 4 -9 6 1 6 11 1
11 4 0 17 -8 10 -9 18 -3 22 17 12 12 82 -5 83 -11 0 -10 3 4 9 18 7 19 8 3
15 -10 4 -18 16 -18 27 0 29 -34 138 -43 138 -11 0 -25 -42 -20 -57 3 -7 -2
-16 -11 -19 -9 -3 -16 -15 -16 -25 0 -11 -9 -30 -20 -42 -12 -12 -16 -23 -10
-25 15 -5 12 -22 -5 -22 -9 0 -12 -6 -9 -15 4 -8 1 -15 -5 -15 -5 0 -15 -9
-21 -20 -8 -15 -7 -26 6 -44 8 -14 13 -29 10 -34 -3 -6 4 -13 17 -17 l22 -7
-25 -8 -25 -7 25 -11 c17 -7 20 -11 8 -11 -9 -1 -20 -6 -23 -12 -4 -6 0 -9 11
-7 12 2 19 -4 21 -17 1 -11 0 -14 -3 -8 -4 10 -9 10 -20 -1 -18 -19 -18 -32 0
-17 10 8 15 8 18 1 2 -6 27 8 57 30 29 22 60 40 70 40 9 0 3 -7 -15 -18 -71
-40 -134 -86 -134 -98 0 -7 5 -36 11 -64 9 -40 15 -51 35 -56 15 -4 21 -10 16
-18 -14 -22 -9 -85 7 -89 13 -4 13 -5 -1 -6 -10 0 -19 -4 -19 -8 -7 -45 -6
-68 1 -88 6 -15 6 -27 -1 -30 -5 -4 -6 -12 -2 -18 10 -16 3 -60 -11 -69 -6 -5
-2 -8 11 -8 25 0 39 -15 22 -25 -13 -9 -4 -134 12 -150 7 -7 15 -4 26 10 14
18 15 18 9 2 -3 -10 -6 -21 -6 -23 0 -2 -7 -4 -15 -4 -8 0 -15 -4 -15 -10 0
-5 7 -10 15 -10 8 0 15 -4 15 -10 0 -5 -6 -10 -14 -10 -11 0 -12 -5 -3 -25 7
-13 14 -19 15 -12 2 7 11 28 20 47 18 41 18 70 -3 110 -19 37 -19 51 1 43 14
-5 16 1 11 43 -2 27 -1 57 4 67 7 12 6 17 -3 17 -10 0 -10 2 -1 8 7 5 9 13 3
21 -4 8 -6 20 -3 28 3 7 0 20 -7 28 -11 13 -10 14 6 8 15 -5 17 -4 8 8 -6 8
-14 23 -17 34 -6 17 -4 17 13 -4 22 -26 26 -21 9 11 -8 15 -8 23 1 32 6 6 10
7 9 1 -2 -11 29 -85 36 -85 2 0 -7 33 -21 73 -13 39 -23 86 -21 102 3 27 7 30
33 27 16 -2 43 -7 59 -11 24 -6 42 -2 85 20 49 25 56 26 64 12 10 -19 -12
-211 -26 -219 -10 -6 -60 30 -98 70 -14 14 -31 26 -37 26 -7 0 -13 7 -13 15 0
18 -48 70 -56 62 -3 -3 2 -34 12 -68 12 -44 28 -74 52 -97 18 -19 31 -40 28
-47 -3 -8 -1 -15 4 -17 5 -2 10 -10 12 -18 2 -8 12 -20 23 -27 12 -7 15 -12 6
-13 -7 0 -28 15 -47 34 -40 40 -46 31 -9 -13 15 -16 38 -31 53 -33 27 -3 27
-4 24 -66 -4 -86 13 -197 47 -311 16 -53 36 -127 45 -166 28 -119 104 -374
116 -390 4 -5 10 -23 14 -40 7 -27 18 -53 76 -180 10 -22 22 -53 25 -70 6 -27
5 -28 -8 -12 -8 9 -18 17 -23 17 -5 0 -17 9 -27 20 -9 11 -25 20 -36 20 -10 0
-24 7 -31 15 -10 12 -15 12 -36 -2 -13 -8 -24 -11 -24 -7 0 5 -10 20 -21 34
-19 23 -20 23 -14 3 5 -18 2 -20 -15 -16 -11 3 -20 12 -20 19 0 8 -4 14 -10
14 -5 0 -10 6 -10 14 0 18 -19 25 -56 20 -27 -3 -27 -3 -4 4 l25 8 -32 17
c-18 10 -33 21 -33 26 0 5 -9 7 -20 4 -14 -4 -20 -1 -18 8 2 10 -7 14 -31 12
-25 -1 -31 1 -20 8 11 8 10 9 -6 6 -11 -2 -32 3 -48 10 -21 11 -32 11 -50 2
-28 -15 -57 -45 -57 -60 0 -6 -8 -9 -19 -6 -11 3 -24 -3 -32 -16 -20 -30 -79
-87 -90 -87 -5 0 -9 -7 -9 -15 0 -9 -14 -17 -37 -21 -21 -3 -48 -12 -59 -20
-12 -7 -31 -10 -43 -7 -12 3 -21 1 -21 -5 0 -14 -73 -34 -94 -26 -9 3 -16 1
-16 -5 0 -6 -11 -11 -25 -11 -14 0 -25 6 -25 13 0 9 -2 9 -8 -1 -10 -14 -94
-14 -104 1 -4 8 -15 7 -32 -1 -14 -6 -26 -8 -26 -4 0 5 -46 9 -102 9 -57 0
-112 1 -123 2 -11 1 -42 -1 -69 -3 -26 -3 -57 -1 -68 5 -11 6 -27 7 -36 3 -9
-3 -42 -6 -72 -6 -30 1 -71 -3 -90 -8 -23 -6 -36 -6 -38 0 -2 6 -8 10 -13 10
-6 0 -8 -4 -4 -9 3 -5 1 -12 -5 -16 -5 -3 -10 -2 -10 4 0 6 -12 6 -32 1 -18
-4 -79 -7 -135 -7 -57 1 -103 -1 -103 -4 0 -4 -17 -3 -38 1 -20 5 -64 10 -97
11 -33 1 -76 7 -95 12 -19 5 -57 11 -85 12 -72 4 -185 26 -185 36 0 5 -5 9
-11 9 -5 0 -7 -4 -4 -10 9 -15 0 -12 -40 10 -20 11 -40 18 -46 15 -5 -4 -9
-140 -9 -332 l0 -325 25 -20 c14 -11 23 -23 21 -27 -3 -4 9 -24 25 -44 17 -20
26 -37 21 -37 -6 0 -12 5 -14 12 -3 9 -6 9 -12 0 -4 -7 3 -14 19 -18 24 -6 24
-7 8 -20 -16 -12 -16 -13 -1 -14 9 0 20 -9 23 -20 4 -12 16 -20 28 -21 21 0
21 -1 2 -9 -20 -9 -20 -9 2 -15 12 -4 19 -13 17 -20 -3 -7 -1 -16 5 -19 6 -4
8 -13 5 -21 -4 -8 1 -17 9 -21 9 -3 13 -12 10 -20 -3 -8 1 -14 11 -14 9 0 16
-4 16 -10 0 -13 43 -56 52 -53 5 2 8 -2 8 -7 0 -17 25 -11 63 14 24 16 38 21
45 14 12 -12 35 -1 26 13 -3 5 9 8 27 7 20 -2 46 -16 68 -35 20 -18 41 -33 48
-33 7 0 10 -7 6 -17 -4 -11 -3 -14 5 -9 7 4 14 -4 18 -21 10 -48 12 -49 13 -9
1 48 10 42 16 -10 2 -22 4 -43 5 -49 1 -5 5 -1 10 10 8 19 9 19 9 -2 1 -12 6
-25 12 -28 6 -4 8 -13 5 -21 -3 -8 -1 -14 4 -14 6 0 10 -8 10 -17 0 -9 7 -24
15 -32 8 -9 15 -41 17 -71 2 -30 6 -57 9 -60 3 -3 9 -17 12 -31 5 -21 3 -28
-13 -32 -24 -6 -27 -27 -4 -27 12 0 14 -4 6 -12 -12 -16 -23 -78 -25 -139 -1
-33 -6 -45 -14 -42 -16 6 -17 -13 -2 -22 6 -4 8 -14 4 -23 -3 -8 0 -19 7 -24
10 -6 9 -11 -5 -19 -9 -6 -15 -15 -11 -20 3 -5 1 -16 -5 -23 -9 -10 -7 -15 6
-20 15 -6 15 -8 3 -16 -13 -8 -13 -10 -1 -10 12 0 12 -3 3 -12 -7 -7 -12 -31
-12 -55 0 -31 -4 -43 -15 -43 -8 0 -12 -6 -10 -13 5 -12 -12 -26 -65 -54 -19
-10 -21 -13 -7 -13 15 0 16 -2 5 -14 -7 -7 -19 -11 -26 -9 -7 3 -19 0 -27 -7
-8 -6 -19 -9 -25 -5 -5 3 -10 1 -10 -6 0 -7 -10 -9 -27 -6 -15 3 -36 1 -47 -5
-12 -6 -16 -6 -12 0 8 14 -137 22 -146 8 -5 -7 -8 -7 -8 2 0 6 -7 12 -15 12
-8 0 -15 4 -15 10 0 5 -18 15 -40 21 -22 7 -40 18 -40 24 0 7 -12 16 -26 19
-22 6 -25 11 -22 36 2 16 1 27 -3 25 -18 -12 -31 38 -16 62 4 6 3 14 -3 18
-14 9 -12 21 7 40 16 16 21 75 8 95 -4 6 0 10 8 10 22 0 27 24 18 75 -5 25 -9
46 -9 48 -3 21 -29 57 -42 57 -11 0 -17 7 -16 17 0 10 -6 18 -14 18 -13 0 -15
-140 -18 -1187 l-2 -1188 2358 0 2359 0 12 23 11 22 -6 -22 c-4 -18 -1 -23 14
-23 11 0 23 6 25 13 4 9 6 9 6 0 1 -17 68 -17 74 0 4 9 6 9 6 0 1 -10 167 -13
796 -13 629 0 795 3 795 13 0 8 4 7 10 -3 9 -13 11 -13 20 0 6 10 10 11 10 3
0 -10 36 -13 145 -13 121 0 145 2 145 15 0 8 6 12 13 10 14 -6 18 106 3 116
-5 4 -5 13 0 20 5 8 9 16 9 19 2 17 29 87 39 100 21 28 36 60 36 75 0 8 9 15
20 15 15 0 20 7 20 25 0 14 9 35 20 47 10 11 26 36 35 55 9 19 23 37 31 40 8
3 14 11 14 19 0 8 4 14 9 14 5 0 13 9 16 20 3 11 13 20 21 20 8 0 14 9 14 20
0 11 7 20 15 20 9 0 15 9 15 24 0 16 7 27 20 31 11 3 20 11 20 16 0 11 7 20
58 76 17 20 32 44 32 54 0 11 7 19 15 19 8 0 15 9 15 20 0 13 5 18 14 14 11
-4 17 5 22 31 5 26 9 33 15 23 7 -11 9 -11 9 1 0 13 48 65 61 66 12 0 35 31
32 42 -2 6 1 14 6 18 16 9 13 25 -4 25 -8 0 -15 5 -15 10 0 6 7 10 15 10 8 0
15 7 15 14 0 12 -6 13 -30 5 -16 -6 -30 -14 -30 -18 0 -16 -107 -81 -131 -80
-17 1 -19 3 -6 6 20 5 21 25 3 78 -15 43 -36 58 -36 26 0 -12 -6 -21 -15 -21
-21 0 -19 23 5 40 11 8 20 20 20 26 0 11 40 65 83 115 13 15 13 19 0 32 -13
13 -10 14 24 13 34 -2 38 1 37 21 -1 30 -14 43 -14 15 0 -12 -4 -22 -10 -22
-5 0 -10 5 -10 11 0 5 -5 7 -12 3 -6 -4 -17 1 -25 11 -7 11 -13 14 -13 8 0 -6
-9 -9 -21 -6 -12 3 -18 11 -15 19 5 14 -9 19 -73 27 -27 3 -35 0 -39 -17 -5
-19 -6 -19 -13 0 -7 19 -8 19 -9 -1 0 -11 -16 -31 -35 -45 -26 -19 -34 -31
-32 -48 4 -19 2 -20 -10 -10 -13 10 -21 6 -45 -22 -17 -19 -42 -49 -56 -65
-15 -17 -33 -43 -41 -58 -8 -14 -18 -24 -22 -21 -10 6 -31 -31 -22 -40 3 -3
-1 -6 -10 -6 -10 0 -17 -6 -17 -14 0 -7 -7 -19 -15 -26 -8 -6 -14 -15 -13 -18
1 -4 -21 -52 -48 -108 -28 -55 -66 -147 -83 -205 -18 -57 -38 -115 -44 -129
-6 -14 -10 -29 -8 -34 1 -4 -5 -19 -14 -32 -8 -13 -15 -36 -15 -51 0 -40 -11
-74 -21 -67 -5 3 -9 -6 -9 -20 0 -19 -5 -26 -20 -26 -21 0 -29 33 -10 45 16
10 12 25 -5 19 -9 -4 -15 0 -15 10 0 9 7 16 15 16 11 0 14 10 11 42 -4 41 10
98 22 98 4 0 7 27 7 59 0 32 3 57 7 55 8 -5 29 30 27 43 -1 4 0 15 3 23 3 8
11 35 18 60 7 25 16 54 20 65 4 11 15 45 25 75 9 30 23 58 29 62 8 5 7 8 -2 8
-9 0 -7 10 8 31 12 16 20 33 17 36 -3 3 3 15 14 26 11 12 23 33 26 47 3 14 17
39 30 56 12 17 23 36 23 42 0 7 4 12 9 12 5 0 12 11 15 25 4 14 11 25 16 25 6
0 10 6 10 14 0 8 9 18 20 21 16 5 19 12 14 27 -4 13 -2 18 4 14 6 -4 23 10 39
30 15 20 38 46 51 57 12 11 22 26 22 33 0 6 7 14 15 18 8 3 15 12 15 21 0 8 9
15 20 15 13 0 18 5 14 15 -4 10 0 15 15 15 12 0 21 6 21 15 0 8 7 15 16 15 17
0 32 14 50 45 6 11 18 20 27 20 9 0 26 11 38 25 12 14 32 35 43 48 l21 24 -30
-4 c-18 -2 -30 2 -30 9 0 6 -4 15 -9 20 -5 4 -6 3 -3 -3 9 -15 -8 -27 -60 -44
-24 -7 -43 -17 -43 -22 0 -4 -7 -8 -15 -8 -9 0 -12 -6 -9 -17 5 -17 5 -17 -9
0 -14 17 -15 17 -22 0 -5 -10 -9 -22 -9 -28 -1 -5 -9 -9 -18 -7 -10 1 -25 -9
-34 -23 -9 -14 -23 -25 -30 -25 -8 0 -14 -7 -14 -15 0 -8 -3 -14 -7 -13 -17 3
-63 -26 -68 -44 -7 -20 -16 -23 -33 -8 -8 7 -9 7 -3 -1 14 -17 2 -39 -20 -39
-40 0 -39 57 2 155 7 17 12 33 11 38 -1 4 4 7 12 7 9 0 12 7 9 18 -2 10 3 31
11 47 9 17 16 45 16 64 0 29 19 77 52 131 5 8 11 23 14 33 4 9 11 17 18 17 6
0 4 5 -4 10 -12 8 -12 10 -1 10 11 0 11 3 1 15 -10 13 -9 15 9 15 11 0 21 5
21 10 0 6 -5 10 -12 10 -6 0 -4 7 5 18 10 10 14 21 11 25 -4 4 0 17 9 31 14
21 14 25 2 30 -10 4 -13 14 -9 34 7 33 -19 52 -34 25 -8 -13 -10 -13 -16 3 -4
10 -1 21 5 25 9 5 9 15 -1 39 -11 27 -11 33 1 41 10 6 11 9 1 9 -10 0 -10 5
-2 21 14 26 7 35 -10 14 -18 -21 -29 -19 -23 5 3 12 2 20 -3 19 -5 -1 -16 -1
-24 0 -13 1 -13 2 0 11 13 8 12 10 -2 10 -10 0 -18 -5 -18 -11 0 -5 -4 -8 -10
-4 -5 3 -7 12 -3 20 3 8 0 15 -6 15 -6 0 -16 11 -21 25 -5 14 -17 25 -27 25
-13 0 -14 -3 -5 -12 18 -18 15 -23 -23 -38 -19 -8 -35 -17 -35 -22 0 -4 -12
-8 -27 -8 -22 0 -26 13 -5 16 23 2 60 29 75 55 9 17 21 28 26 24 6 -3 9 4 8
15 -1 19 -3 19 -13 6 -15 -21 -56 -22 -48 -1 3 8 2 20 -2 27 -17 27 -12 38 17
38 16 0 29 4 29 9 0 4 -21 7 -47 6 -36 -1 -49 -6 -51 -18 -2 -11 3 -17 15 -17
15 0 16 -2 3 -10 -10 -6 -16 -6 -18 0 -4 12 -32 13 -32 2 0 -4 5 -13 11 -19 6
-6 8 -16 5 -22 -12 -18 -26 -12 -27 12 0 19 -2 18 -16 -10 -9 -18 -21 -33 -26
-33 -5 0 -4 -7 3 -15 16 -19 5 -34 -12 -17 -23 23 -29 12 -9 -17 30 -41 26
-46 -13 -16 -28 21 -35 23 -45 11 -6 -7 -8 -21 -5 -31 5 -13 9 -14 15 -3 5 8
6 -1 2 -22 -3 -19 -12 -39 -20 -43 -7 -4 -13 -17 -13 -29 0 -11 -8 -27 -17
-34 -19 -14 -20 -14 32 -18 13 0 21 -9 23 -23 3 -18 -1 -23 -20 -23 -22 1 -22
1 -4 15 24 18 15 30 -12 16 -11 -6 -22 -7 -26 -3 -4 3 -4 -1 0 -11 4 -12 1
-17 -10 -17 -9 0 -16 -4 -16 -10 0 -5 6 -10 13 -10 8 0 14 -7 14 -15 0 -18 -9
-19 -24 -4 -9 9 -11 7 -6 -9 3 -14 11 -19 21 -15 15 4 16 3 1 -9 -9 -7 -14
-19 -11 -27 2 -8 1 -11 -4 -8 -5 3 -18 -1 -29 -9 -10 -8 -13 -14 -7 -14 7 0
12 -5 12 -11 0 -6 -9 -9 -20 -6 -27 7 -25 -7 3 -26 l22 -16 -25 -1 -25 -2 25
-7 c24 -7 24 -8 -12 -21 -20 -7 -40 -23 -44 -34 -4 -12 -10 -30 -14 -41 -4
-11 -2 -26 3 -32 6 -9 6 -13 -2 -13 -6 0 -11 5 -11 10 0 6 -4 10 -10 10 -5 0
-10 -7 -10 -15 0 -11 -7 -14 -25 -9 -15 4 -25 2 -25 -5 0 -6 11 -11 25 -11 14
0 25 -4 25 -10 0 -5 -7 -7 -16 -3 -13 5 -15 2 -9 -16 6 -20 4 -22 -22 -19 -15
2 -28 -1 -28 -7 0 -5 15 -10 33 -10 17 0 32 -3 32 -7 0 -5 -19 -8 -42 -8 -41
0 -44 -2 -61 -45 -11 -25 -24 -45 -29 -45 -6 0 -5 -6 2 -15 11 -13 8 -15 -16
-15 l-29 -1 25 -14 25 -14 -29 -1 c-24 0 -27 -2 -16 -15 7 -9 10 -18 6 -22 -3
-3 -6 -1 -6 6 0 7 -5 9 -11 5 -6 -3 -15 0 -20 7 -6 9 -7 2 -3 -18 6 -28 3 -34
-17 -42 -22 -9 -22 -10 -4 -10 12 -1 26 4 33 11 9 9 12 9 12 0 0 -7 -12 -17
-26 -22 -21 -8 -25 -16 -22 -39 3 -30 -29 -70 -67 -85 -13 -5 -16 -14 -12 -34
3 -15 2 -34 -4 -42 -5 -8 -9 -10 -9 -5 -1 6 -5 0 -10 -12 -5 -13 -17 -23 -25
-23 -9 0 -14 -4 -10 -10 3 -5 12 -7 20 -3 8 3 15 0 15 -6 0 -6 -9 -11 -20 -11
-11 0 -20 -4 -20 -10 0 -5 5 -10 11 -10 5 0 7 -5 4 -10 -4 -6 -1 -18 6 -26 10
-12 9 -13 -5 -8 -9 3 -16 12 -16 20 0 17 -36 19 -46 2 -4 -6 -3 -8 3 -5 6 4
16 0 23 -8 10 -12 10 -18 0 -30 -7 -8 -16 -12 -21 -9 -5 3 -9 -2 -9 -11 0 -12
6 -15 20 -10 14 5 20 2 20 -10 0 -11 -6 -15 -19 -10 -14 4 -21 -2 -31 -25 -12
-28 -11 -33 10 -55 20 -21 21 -25 7 -25 -9 0 -17 5 -17 10 0 6 -6 10 -14 10
-16 0 -30 -70 -16 -84 6 -6 10 -15 10 -20 0 -6 -6 -2 -12 9 -11 19 -11 19 -19
0 -7 -18 -8 -18 -8 4 -1 17 -4 21 -13 14 -14 -11 -52 20 -40 32 9 9 9 65 0 65
-5 0 -8 -7 -8 -15 0 -8 -4 -15 -10 -15 -13 0 -13 27 1 35 6 4 8 13 5 20 -2 7
1 18 7 24 11 11 0 16 -28 12 -5 -1 -1 6 10 15 14 11 16 18 8 21 -7 3 -13 9
-13 14 0 6 4 7 10 4 5 -3 12 6 16 20 3 14 10 25 15 25 5 0 9 5 9 10 0 6 -7 10
-17 10 -15 0 -15 1 0 18 10 11 17 35 17 60 0 28 5 44 18 51 14 8 14 11 2 12
-8 1 -18 1 -22 0 -4 0 -5 6 -1 15 3 8 11 13 18 10 8 -3 12 6 11 25 -1 16 -5
29 -11 29 -5 0 1 9 15 20 14 11 21 20 16 20 -5 0 -2 7 5 16 7 9 14 26 16 37 4
33 25 100 36 114 5 7 7 22 4 33 -3 11 1 27 9 34 8 8 17 39 20 68 3 29 10 54
15 56 5 2 9 11 9 20 0 10 11 39 25 67 15 29 21 51 15 53 -5 2 -10 19 -10 37 0
25 4 32 18 31 9 0 17 6 18 14 0 8 5 33 9 55 5 22 9 43 10 47 0 3 3 9 7 13 4 4
4 13 1 21 -3 8 0 14 7 14 6 0 10 11 8 28 -2 15 3 32 12 39 10 9 11 12 3 13
-21 0 -15 20 6 20 17 0 18 3 8 31 -10 26 -9 32 6 44 16 11 16 13 1 19 -9 3
-20 4 -25 0 -5 -3 -9 0 -9 6 0 6 -5 8 -11 4 -8 -4 -7 -9 2 -16 11 -7 11 -11 2
-15 -7 -2 -13 -12 -13 -20 0 -9 -6 -13 -15 -9 -8 3 -16 0 -17 -7 0 -7 -2 -17
-2 -23 -2 -16 -39 -84 -47 -84 -3 0 -3 -14 -1 -32 4 -26 2 -30 -12 -25 -13 5
-16 0 -16 -25 0 -17 -7 -40 -16 -50 -14 -14 -14 -20 -4 -33 7 -9 10 -19 6 -22
-4 -4 -12 -1 -17 7 -7 11 -9 3 -7 -28 1 -24 -2 -46 -7 -50 -6 -4 -18 -23 -27
-42 -9 -19 -22 -48 -29 -64 -8 -16 -14 -34 -14 -40 -1 -6 -7 -24 -13 -39 -7
-16 -10 -33 -7 -37 3 -5 -1 -12 -8 -17 -17 -10 -47 -70 -47 -95 0 -10 -4 -18
-10 -18 -5 0 -10 -7 -10 -15 0 -8 -5 -15 -12 -15 -6 0 -9 -3 -5 -6 3 -4 -1
-20 -9 -36 -8 -16 -12 -33 -9 -38 3 -6 -1 -10 -10 -10 -9 0 -18 -12 -21 -30
-4 -16 -11 -30 -16 -30 -5 0 -6 -5 -3 -10 3 -6 0 -13 -9 -16 -8 -3 -13 -11
-10 -18 2 -6 -5 -21 -16 -33 -22 -24 -26 -43 -10 -43 6 0 10 -5 10 -11 0 -17
-21 1 -30 27 -10 25 -28 33 -27 11 1 -38 -5 -56 -21 -61 -14 -5 -18 -14 -15
-39 3 -24 2 -29 -6 -17 -9 13 -11 13 -11 -3 0 -10 -6 -20 -14 -23 -8 -3 -12
-12 -9 -20 3 -9 0 -14 -8 -12 -9 2 -14 -7 -14 -25 -1 -38 -51 -100 -74 -92
-10 3 -24 -1 -31 -10 -11 -14 -10 -17 8 -22 12 -3 19 -9 17 -14 -3 -4 -12 -6
-20 -2 -8 3 -15 0 -15 -6 0 -6 7 -11 17 -11 14 0 15 -2 1 -17 -9 -10 -13 -24
-11 -30 3 -7 0 -13 -6 -13 -6 0 -11 -9 -11 -20 0 -16 -4 -19 -17 -12 -10 5
-25 7 -33 4 -13 -4 -13 -3 -2 11 10 12 11 21 3 34 -10 17 -10 17 -11 -2 -1
-11 -4 -14 -7 -7 -2 6 -11 12 -19 12 -10 0 -14 12 -14 40 0 22 -4 40 -10 40
-5 0 -10 -4 -10 -10 0 -5 -5 -10 -12 -10 -6 0 -4 8 6 19 9 10 18 32 19 50 1
18 7 31 16 31 8 0 11 7 8 20 -4 17 -1 19 21 14 15 -3 22 -2 16 3 -6 4 -14 17
-17 27 -6 16 -5 17 8 6 9 -7 18 -10 22 -6 3 3 2 6 -4 6 -7 0 -5 15 4 42 11 34
12 43 1 49 -18 12 -5 11 29 -2 23 -8 26 -8 16 2 -17 17 -16 56 1 66 19 11 44
65 38 82 -3 9 0 11 8 6 9 -6 11 -4 5 4 -4 8 3 23 17 39 35 39 58 78 58 101 0
15 5 18 22 13 14 -3 19 -2 14 7 -12 18 3 48 26 55 12 3 19 8 16 12 -4 3 2 16
13 27 11 12 17 27 14 35 -2 7 2 15 10 18 8 4 12 10 9 15 -3 5 2 9 11 9 9 0 13
5 10 11 -4 6 3 13 15 16 21 6 22 7 6 19 -22 15 -20 27 5 36 13 5 19 17 20 40
0 28 2 30 9 13 7 -16 9 -17 9 -3 1 9 6 18 12 20 7 2 12 30 12 71 0 37 3 67 8
67 5 0 9 -7 9 -16 0 -8 4 -13 9 -10 4 3 6 18 3 32 -3 19 -1 25 7 20 13 -9 14
3 2 24 -6 8 -7 18 -4 23 3 5 9 3 14 -4 6 -10 9 -8 9 9 0 12 -6 22 -12 22 -8 1
-5 7 6 15 15 12 46 59 46 71 0 2 -4 4 -10 4 -5 0 -10 -7 -10 -15 0 -9 -14 -17
-37 -21 -21 -3 -46 -16 -56 -28 -16 -18 -18 -18 -13 -3 3 10 6 22 6 25 0 4 9
13 21 20 16 10 24 10 35 1 9 -7 14 -8 14 -1 0 6 -9 14 -20 17 -11 3 -20 12
-20 19 0 16 34 48 43 40 3 -3 6 2 5 12 0 11 1 25 3 33 3 9 -6 14 -29 15 -28 1
-32 -2 -28 -18 6 -24 -37 -69 -52 -54 -7 7 -16 -1 -28 -23 -10 -19 -17 -37
-16 -41 1 -5 -3 -8 -8 -8 -6 0 -10 -6 -10 -14 0 -8 -11 -23 -25 -34 -14 -11
-25 -28 -25 -39 0 -10 -10 -28 -22 -40 -97 -95 -124 -118 -135 -115 -7 2 -10
-3 -7 -11 3 -8 -2 -17 -10 -20 -9 -4 -16 -1 -16 5 0 9 -3 9 -12 0 -10 -10 -10
-15 1 -21 11 -7 9 -10 -7 -15 -11 -4 -23 -13 -26 -21 -3 -8 -10 -15 -16 -15
-6 0 -21 -11 -34 -25 -13 -14 -26 -25 -29 -25 -5 0 -63 -48 -99 -83 -10 -9
-21 -17 -24 -17 -3 0 -31 -22 -63 -50 -32 -27 -65 -50 -74 -50 -9 0 -20 -8
-26 -17 -6 -12 -20 -17 -40 -15 -25 2 -31 -1 -31 -18 0 -14 -7 -20 -22 -20
-20 0 -21 1 -3 20 11 12 13 20 6 20 -7 0 -10 4 -7 8 3 5 -9 6 -27 4 -18 -3
-27 -7 -20 -9 8 -3 5 -11 -9 -25 -14 -14 -23 -17 -31 -9 -7 7 -14 5 -23 -7
-12 -16 -13 -15 -14 6 0 12 -6 25 -14 28 -8 3 -12 12 -9 20 4 10 -3 14 -22 14
-20 0 -26 4 -21 15 3 10 -1 18 -12 22 -14 6 -13 8 7 13 13 3 28 16 32 30 8 22
8 23 -5 8 -12 -17 -15 -16 -36 12 -23 29 -70 47 -91 34 -9 -5 -7 -11 6 -20 26
-19 13 -27 -21 -14 -28 11 -28 12 -10 25 11 8 16 21 13 30 -4 8 -2 15 3 15 6
0 10 -5 10 -10 0 -7 7 -7 20 0 11 6 18 14 16 18 -3 5 -1 14 4 22 7 11 12 11
23 2 11 -10 16 -7 25 13 6 14 15 25 19 25 5 0 19 10 33 23 14 12 45 38 70 57
25 19 51 40 58 47 8 7 18 11 23 7 5 -3 8 -1 7 4 -2 5 22 28 52 52 30 24 62 50
72 59 9 9 51 45 94 81 113 95 386 368 495 495 126 147 189 225 189 235 0 5 6
15 13 22 7 7 34 46 60 86 26 39 68 105 94 145 62 95 137 233 164 302 4 11 22
51 38 88 36 79 37 89 14 85 -12 -2 -19 6 -23 27 -13 57 -81 148 -147 193 -43
30 -55 29 -42 -5 7 -20 6 -29 -3 -36 -9 -6 -8 -7 5 -3 17 5 19 2 19 -34 0 -50
-3 -61 -13 -54 -6 3 -9 17 -6 30 2 14 0 27 -4 30 -8 5 -13 -12 -12 -43 0 -6
-5 -9 -12 -7 -7 3 -15 -2 -18 -10 -10 -27 -27 -18 -27 14 0 20 5 30 14 30 12
0 13 6 4 31 -6 16 -7 33 -3 37 4 4 10 1 12 -5 3 -7 9 -13 15 -13 6 0 3 9 -7
20 -10 11 -21 17 -26 14 -15 -9 -36 -98 -74 -314 -21 -122 -64 -301 -75 -315
-5 -6 -22 -35 -38 -65 -42 -80 -83 -152 -94 -164 -4 -6 -21 -28 -37 -48 -15
-21 -31 -35 -35 -31 -3 3 -6 -2 -6 -12 0 -10 -11 -33 -25 -51 -14 -18 -25 -38
-25 -44 0 -6 -18 -28 -40 -47 -22 -20 -40 -42 -40 -50 0 -7 -4 -13 -9 -13 -5
0 -19 -20 -31 -44 -15 -31 -26 -43 -36 -39 -9 3 -14 0 -12 -8 2 -9 -8 -15 -29
-17 -25 -3 -33 -8 -33 -23 0 -29 -34 -20 -41 11 -6 23 -7 22 -8 -7 -1 -34 -21
-47 -21 -15 -1 16 -1 16 -14 0 -18 -25 -33 -22 -61 10 -26 29 -32 52 -14 52 5
0 7 5 4 10 -4 6 -12 7 -18 3 -26 -16 -39 -12 -33 12 3 13 7 29 9 37 2 7 2 10
0 6 -8 -13 -44 -9 -59 7 -9 8 -11 15 -5 15 6 0 11 5 11 11 0 6 -6 9 -14 6 -16
-6 -82 40 -78 54 1 6 -2 8 -7 5 -4 -3 -8 6 -8 20 0 14 -6 31 -13 37 -10 10
-11 6 -6 -15 8 -33 4 -34 -31 -11 -15 10 -24 13 -20 6 9 -15 -1 -40 -19 -47
-14 -5 -15 14 -2 24 4 4 11 20 14 38 5 23 3 32 -6 32 -8 0 -11 -3 -7 -6 10
-10 -30 -46 -49 -42 -23 4 -39 31 -31 52 6 16 8 16 23 2 8 -9 23 -16 32 -15
14 0 13 2 -3 8 -19 8 -19 8 0 20 18 11 17 12 -7 6 -21 -4 -28 -2 -28 10 0 8 9
15 20 15 11 0 20 5 20 10 0 19 -21 10 -51 -22 -16 -18 -29 -36 -29 -41 0 -4
-4 -6 -9 -3 -5 3 -11 -3 -14 -14 -3 -11 -12 -20 -21 -20 -14 0 -14 3 -4 20 7
10 9 23 5 27 -5 4 -12 1 -17 -7 -5 -8 -11 -12 -15 -9 -3 3 4 18 16 32 l20 27
-27 0 c-15 0 -36 8 -46 17 -18 16 -18 16 -12 -1 6 -15 2 -17 -32 -10 -36 6
-49 15 -57 38 -2 6 -13 3 -25 -6 -12 -8 -19 -18 -14 -23 4 -4 -4 -4 -18 0 -14
5 -32 8 -40 8 -15 0 -39 24 -40 40 0 4 5 7 10 7 6 0 10 -7 10 -15 0 -8 5 -15
10 -15 13 0 13 37 -1 45 -12 8 23 45 42 45 8 0 7 5 -2 17 -8 9 -9 14 -3 10 14
-8 37 16 26 28 -4 4 3 4 16 1 16 -6 22 -3 22 9 0 9 5 13 10 10 6 -3 10 1 10
10 0 12 6 15 20 10 11 -3 20 -2 20 4 0 5 -10 12 -22 14 -20 4 -19 4 5 6 17 0
27 7 27 16 0 8 7 15 15 15 8 0 15 4 15 10 0 5 -7 7 -15 4 -9 -4 -15 0 -15 10
0 9 7 16 16 16 17 0 49 28 41 36 -2 3 -11 -2 -19 -10 -10 -9 -20 -11 -29 -5
-21 13 -29 11 -23 -6 4 -9 0 -15 -10 -15 -9 0 -15 5 -13 11 1 6 -4 14 -11 16
-8 3 -10 -1 -6 -11 3 -9 1 -16 -5 -16 -6 0 -11 5 -11 12 0 7 -5 6 -12 -4 -18
-21 -46 -29 -52 -15 -3 9 -8 8 -15 -3 -10 -13 -13 -13 -25 3 -16 21 -26 22
-26 2 0 -9 -6 -12 -16 -8 -12 4 -13 7 -3 14 8 4 11 10 9 13 -9 9 -104 10 -128
2 -21 -7 -23 -5 -18 12 4 11 2 23 -4 27 -5 3 -10 -2 -10 -13 0 -19 -27 -38
-38 -27 -3 3 0 5 6 5 7 0 12 5 12 10 0 6 -7 10 -15 10 -8 0 -15 5 -15 11 0 6
-7 18 -16 27 -15 15 -16 14 -9 -8 7 -24 7 -24 -11 -9 -11 9 -32 19 -48 23 -20
5 -26 10 -17 15 9 6 5 12 -12 24 -22 14 -25 22 -23 77 2 35 -1 55 -5 48 -5 -8
-9 -9 -9 -2 0 6 8 22 18 35 21 26 36 72 21 63 -5 -3 -9 2 -9 10 0 9 7 16 15
16 18 0 20 16 3 23 -9 4 -9 8 -3 14 6 4 11 26 13 48 2 38 2 39 -14 20 -16 -20
-16 -20 -9 3 5 16 2 22 -9 22 -8 0 -18 9 -21 20 -3 11 -10 20 -14 20 -5 0 -11
14 -15 31 -3 17 -10 28 -16 24 -5 -3 -7 0 -4 8 3 9 13 13 25 10 13 -4 19 0 19
10 0 9 9 19 20 22 11 3 20 11 20 16 0 5 7 9 15 9 8 0 30 14 48 30 19 17 38 30
41 30 9 0 70 43 74 53 2 4 10 7 18 7 8 0 17 7 20 15 4 8 15 15 25 15 10 0 19
5 19 10 0 14 37 12 43 -2 4 -10 8 -10 15 1 9 12 13 12 26 2 8 -7 20 -10 26 -6
5 3 10 1 10 -4 0 -6 7 -11 15 -11 8 0 12 6 9 14 -7 19 27 29 57 17 20 -7 21
-10 8 -16 -24 -9 -12 -47 12 -40 14 5 19 1 19 -14 0 -24 18 -28 26 -6 4 8 12
15 20 15 8 0 14 5 14 10 0 6 -4 10 -9 10 -11 0 -11 79 1 86 5 3 7 23 3 44 -4
22 -2 41 4 44 6 4 8 13 4 21 -3 8 0 15 7 15 7 0 9 8 5 20 -4 11 -2 20 4 20 6
0 11 -7 11 -16 0 -9 6 -14 13 -11 6 2 11 12 11 21 -1 9 2 16 7 16 6 0 5 9 -1
20 -9 17 -8 20 14 20 31 0 33 3 40 65 5 46 3 53 -25 83 -17 18 -28 36 -25 39
4 4 12 1 18 -5 7 -7 16 -12 21 -12 6 0 -2 12 -17 26 -28 29 -32 39 -15 49 6 5
4 12 -8 21 -17 13 -17 13 1 14 23 0 15 10 -11 14 -14 2 -18 12 -18 49 -1 51
-11 69 -26 47 -7 -11 -8 -6 -3 14 5 21 4 27 -5 22 -12 -8 -12 -8 -16 54 -2 26
-10 49 -19 56 -21 15 -20 34 2 50 9 7 12 14 6 14 -7 0 -9 11 -6 26 3 14 -1 29
-7 33 -16 10 4 61 24 61 8 0 15 9 15 20 0 11 -5 20 -11 20 -5 0 -7 5 -4 10 5
8 11 8 20 0 10 -9 16 -7 24 9 6 11 11 29 11 40 0 12 5 21 10 21 6 0 10 13 10
29 0 17 5 33 10 36 6 4 8 11 5 16 -3 5 1 6 9 3 13 -5 16 2 16 34 0 25 8 49 21
66 17 21 19 30 9 41 -10 12 -9 16 6 22 11 4 26 16 35 27 10 13 20 16 30 11 7
-5 31 -11 51 -12 35 -4 38 -2 38 21 0 15 5 26 11 26 7 0 10 17 7 45 -2 35 0
45 12 46 8 0 4 5 -9 10 -19 7 -27 6 -33 -5 -5 -8 -15 -13 -23 -10 -8 4 -15 1
-15 -4 0 -6 -9 -14 -20 -17 -11 -3 -20 -13 -20 -21 0 -8 -5 -14 -10 -14 -6 0
-9 5 -8 11 2 6 -7 18 -19 26 -22 15 -23 14 -23 -7 0 -17 -4 -21 -17 -16 -9 4
-32 -1 -50 -11 -36 -19 -59 -9 -28 13 18 13 17 14 -11 8 -23 -4 -33 -2 -37 9
-4 11 0 14 16 11 21 -4 21 -4 2 5 -30 14 -45 13 -39 -4 8 -21 -6 -41 -17 -24
-6 10 -9 8 -9 -8 0 -21 -18 -34 -21 -15 -6 31 -3 62 5 62 5 0 7 3 4 6 -3 3
-15 0 -26 -7 -16 -10 -23 -10 -36 4 -9 8 -16 20 -16 26 0 5 -17 18 -37 28
l-37 17 34 7 c21 5 45 20 61 39 27 32 52 38 116 28 18 -3 30 -1 27 3 -3 5 4 9
15 9 11 0 23 -4 26 -10 3 -5 11 -10 16 -10 6 0 7 5 3 11 -4 8 1 9 17 4 33 -10
36 -15 19 -25 -8 -5 -12 -12 -8 -15 3 -4 18 1 32 10 24 16 26 16 26 1 0 -21 5
-20 35 6 29 25 32 38 8 38 -15 0 -16 -2 -3 -10 13 -8 12 -10 -2 -10 -12 0 -18
8 -18 24 0 19 5 23 28 23 15 1 54 8 86 16 38 10 86 14 135 12 55 -3 85 0 105
10 16 8 41 15 57 15 17 0 52 11 79 25 58 29 125 52 160 53 29 2 60 -35 40 -48
-8 -5 -7 -22 5 -66 10 -32 19 -74 22 -91 6 -35 23 -46 23 -14 0 14 5 18 21 14
14 -4 17 -9 10 -16 -6 -6 -11 -17 -11 -25 0 -30 30 10 31 42 l1 31 7 -30 c7
-34 27 -32 23 3 -2 12 1 22 7 22 6 0 12 12 13 28 0 15 4 5 8 -23 l6 -50 8 63
9 63 30 -7 c27 -6 29 -4 24 15 -4 18 -3 20 9 10 11 -9 14 -8 14 5 0 9 5 16 10
16 6 0 10 -5 10 -11 0 -8 5 -8 15 1 15 13 19 8 16 -22 -2 -13 5 -18 24 -18 14
0 24 4 21 9 -4 5 4 7 16 4 13 -3 20 -2 16 2 -7 8 55 55 72 55 6 0 10 4 10 9 0
5 18 12 41 16 51 9 43 18 -15 17 -36 -1 -46 2 -50 18 -4 11 -9 29 -12 40 -4
14 -1 20 11 20 9 0 14 -4 10 -9 -3 -6 4 -15 15 -21 18 -10 19 -9 9 14 -6 13
-20 27 -30 29 -11 3 -19 10 -19 16 0 7 8 7 24 2 23 -9 23 -8 20 42 -7 99 -10
119 -24 127 -8 5 -10 14 -5 26 4 11 9 25 11 32 3 18 -17 75 -30 85 -8 5 -6 10
4 17 8 5 11 10 6 10 -5 0 -3 7 4 15 6 8 9 19 5 24 -6 11 -14 54 -19 104 -2 15
2 27 7 27 5 0 6 12 3 28 -4 15 -8 61 -10 102 -1 41 -6 82 -11 90 -5 8 -10 31
-11 50 -7 105 -14 153 -29 185 -11 21 -15 45 -11 60 4 17 2 27 -7 31 -10 3
-12 17 -7 54 4 27 2 54 -3 59 -5 5 -10 25 -12 44 -2 19 -7 43 -13 54 -5 10
-10 38 -11 63 -2 56 -19 120 -31 120 -4 0 -13 15 -20 34 -6 19 -19 43 -29 54
-9 12 -25 31 -34 44 -31 41 -49 63 -42 51 4 -8 1 -11 -8 -7 -9 3 -13 13 -10
25 3 10 1 19 -3 19 -5 0 -15 12 -21 28 -15 33 -113 135 -163 171 -76 53 -149
116 -149 129 -1 6 -5 12 -11 12 -5 0 -24 13 -42 29 -18 16 -51 38 -72 49 -22
12 -42 25 -45 30 -15 22 -103 61 -171 76 -41 10 -104 25 -140 36 -36 10 -92
21 -125 24 -33 4 -65 13 -70 20 -14 18 -209 36 -408 38 -81 1 -150 5 -153 10
-6 9 -18 11 -26 3z m-688 -329 c0 -2 -8 -10 -17 -17 -16 -13 -17 -12 -4 4 13
16 21 21 21 13z m-430 -221 c0 -2 -10 -10 -22 -16 -21 -11 -22 -11 -9 4 13 16
31 23 31 12z m59 -72 c-40 -30 -69 -44 -69 -34 0 11 60 49 79 50 7 1 3 -7 -10
-16z m1841 -363 c6 -11 7 -20 3 -21 -4 0 2 -4 15 -9 15 -7 22 -18 22 -37 0
-15 3 -39 5 -53 5 -22 4 -22 -4 -5 -8 18 -10 16 -10 -10 -1 -49 11 -105 21
-99 5 3 12 -2 14 -12 3 -11 23 -28 45 -38 37 -18 51 -36 29 -36 -5 0 -10 5
-10 12 0 6 -3 9 -6 6 -3 -3 2 -23 10 -43 9 -21 16 -46 16 -58 0 -25 39 -89 50
-82 5 3 11 -14 15 -37 4 -24 12 -48 17 -55 5 -7 7 -21 3 -32 -4 -15 1 -23 22
-33 15 -7 29 -19 29 -26 1 -6 3 -14 4 -17 1 -3 3 -10 4 -17 0 -6 7 -13 15 -16
10 -3 12 3 6 27 -7 35 1 40 21 14 12 -16 13 -13 8 25 -5 28 -3 42 5 42 6 0 11
-5 11 -11 0 -5 5 -7 10 -4 6 3 10 -5 10 -19 0 -14 5 -28 10 -31 6 -3 10 -21
10 -40 0 -19 4 -36 9 -40 9 -5 8 17 -3 96 -5 34 -4 36 19 33 22 -2 23 0 15 17
-12 21 -1 25 19 7 10 -11 14 -10 22 5 15 26 39 21 39 -8 0 -18 5 -25 20 -25
23 0 27 15 5 24 -16 6 -21 26 -6 26 5 0 17 -7 25 -16 15 -14 14 -18 -4 -44
-24 -34 -25 -41 -5 -34 9 4 15 0 15 -7 0 -12 2 -12 9 0 5 8 16 11 24 8 9 -3
17 -1 19 4 6 17 38 -2 38 -23 0 -11 8 -22 20 -25 11 -3 20 -11 20 -19 0 -7 7
-17 15 -22 14 -7 13 -11 -4 -31 -11 -13 -25 -20 -30 -16 -11 6 -15 -7 -11 -34
3 -24 44 -78 56 -74 11 4 34 -38 34 -63 0 -9 5 -12 12 -8 6 4 8 3 4 -4 -3 -5
0 -12 6 -15 10 -3 10 -7 0 -20 -8 -9 -21 -13 -30 -10 -13 5 -11 0 6 -19 12
-13 22 -31 23 -39 0 -8 4 -6 8 6 6 14 3 24 -8 32 -14 11 -14 12 0 13 16 0 39
-19 39 -33 0 -4 -4 -5 -10 -2 -6 4 -10 -8 -10 -30 0 -20 4 -34 9 -31 13 9 23
-26 11 -38 -7 -7 -10 -4 -10 9 0 14 -3 16 -11 8 -12 -12 -3 -53 11 -53 5 0 12
9 15 21 7 20 7 19 32 -5 26 -26 43 -33 43 -18 0 4 -9 16 -21 25 -11 10 -18 21
-15 24 3 4 20 -6 36 -22 l30 -29 -27 -11 c-21 -9 -24 -13 -12 -17 17 -7 24
-68 8 -68 -5 0 -9 9 -9 21 0 18 -2 19 -15 5 -8 -8 -15 -20 -15 -26 0 -7 -7
-10 -15 -6 -8 3 -14 2 -14 -2 3 -21 -4 -21 -28 -2 -26 20 -28 20 -34 3 -5 -14
-8 -11 -13 14 -10 44 -26 52 -26 13 0 -18 -4 -29 -10 -25 -5 3 -10 15 -10 26
0 10 -5 19 -11 19 -7 0 -9 -10 -7 -24 5 -23 -16 -46 -24 -27 -2 5 -14 11 -28
15 -18 5 -21 5 -10 -3 21 -15 7 -17 -155 -31 -147 -13 -155 -14 -155 -33 0 -7
-14 -21 -30 -32 -17 -11 -38 -37 -48 -57 -17 -37 -53 -61 -60 -40 -2 8 -10 8
-23 2 -10 -6 -28 -14 -39 -20 -38 -19 -68 -12 -85 20 -8 16 -15 40 -15 53 0
26 -33 62 -49 53 -5 -4 -13 -1 -17 5 -4 8 -3 9 4 5 18 -11 14 5 -5 27 -14 15
-14 19 -3 13 8 -4 4 1 -9 11 -13 10 -34 28 -48 41 -13 12 -28 22 -33 22 -5 0
-12 4 -15 10 -3 6 1 7 9 4 9 -3 16 -1 16 5 0 6 -9 11 -21 11 -11 0 -18 4 -15
9 3 5 -8 14 -25 20 -27 9 -30 15 -28 43 2 20 -1 32 -8 31 -6 -1 -14 4 -17 12
-3 9 1 15 9 15 19 0 19 15 0 34 -20 19 -19 56 0 56 9 0 18 -6 21 -13 6 -16 44
-20 44 -4 -1 13 -30 56 -30 43 0 -4 -11 6 -25 22 -14 17 -25 37 -25 45 0 8 -7
20 -15 27 -24 20 -18 38 11 32 25 -4 26 -3 22 22 -3 14 -1 26 3 26 5 0 9 16 9
35 0 19 -4 35 -9 35 -13 0 -22 112 -10 127 6 6 14 37 18 68 6 46 5 57 -8 65
-14 8 -14 11 -1 19 11 8 12 13 4 21 -8 8 -9 24 -2 52 12 54 4 72 -27 66 -21
-4 -25 -1 -25 18 0 15 -6 24 -15 24 -8 0 -15 4 -15 8 0 16 37 52 54 52 9 0 16
5 16 10 0 6 -9 10 -20 10 -11 0 -20 5 -20 10 0 6 -9 10 -19 10 -14 0 -18 5
-14 19 8 32 33 35 33 5 0 -20 4 -25 16 -20 9 3 27 6 40 6 13 0 24 5 24 10 0 6
-13 10 -30 10 -16 0 -30 5 -30 10 0 6 14 10 30 10 17 0 30 5 30 10 0 6 -11 10
-25 10 -28 0 -75 20 -75 32 0 11 18 10 22 -2 2 -5 29 -13 62 -18 l59 -9 11 28
c6 16 14 29 18 29 4 0 8 6 8 14 0 8 6 17 13 19 9 4 8 8 -3 17 -12 8 -9 9 12 4
17 -4 35 0 50 10 29 21 35 20 48 -4z m-2160 -20 c-8 -5 -17 -7 -19 -4 -3 3 1
9 9 14 8 5 17 7 19 4 3 -3 -1 -9 -9 -14z m35 -40 c-3 -5 -10 -10 -16 -10 -5 0
-9 5 -9 10 0 6 7 10 16 10 8 0 12 -4 9 -10z m1925 -30 c0 -5 -7 -10 -15 -10
-8 0 -15 5 -15 10 0 6 7 10 15 10 8 0 15 -4 15 -10z m-1975 -20 c-10 -11 -20
-18 -23 -15 -7 6 18 35 31 35 5 0 2 -9 -8 -20z m2235 -87 c-11 -17 -11 -17 -6
0 3 10 6 24 7 30 0 9 2 9 5 0 3 -7 0 -20 -6 -30z m-2059 -75 c1 -7 0 -24 -1
-38 -2 -20 1 -22 12 -12 12 10 15 7 15 -18 0 -17 -4 -30 -9 -30 -4 0 -8 5 -8
10 0 6 -4 10 -9 10 -6 0 -6 -12 -1 -30 5 -16 6 -30 2 -30 -4 0 1 -7 11 -14 12
-9 14 -16 8 -21 -17 -10 -13 -28 4 -21 8 3 15 1 15 -4 0 -6 -12 -10 -26 -10
-14 0 -23 -4 -19 -10 3 -5 1 -10 -5 -10 -7 0 -9 -7 -6 -16 3 -9 3 -21 -1 -27
-4 -7 -8 -17 -9 -23 -1 -6 -9 -27 -17 -45 -8 -19 -21 -52 -29 -74 -7 -22 -19
-44 -26 -48 -11 -7 -11 -11 0 -24 11 -13 9 -18 -10 -31 -12 -8 -22 -22 -22
-31 0 -14 2 -14 10 -1 7 12 9 10 7 -7 0 -12 -4 -20 -8 -17 -4 2 -10 -3 -13
-12 -3 -8 -10 -12 -16 -9 -7 4 -7 13 0 26 8 13 7 19 0 19 -6 0 -15 -12 -20
-26 -13 -33 -13 -77 0 -69 5 3 7 12 3 20 -6 17 12 20 22 4 4 -5 -1 -19 -10
-29 -9 -10 -14 -24 -10 -29 3 -6 0 -11 -8 -11 -16 0 -29 -24 -51 -94 -21 -65
-20 -66 13 -29 25 29 30 31 41 18 11 -13 10 -14 -3 -9 -11 4 -21 -4 -32 -25
-8 -17 -21 -31 -28 -32 -8 0 -8 -2 2 -6 10 -4 10 -7 1 -13 -9 -6 -10 -12 -1
-26 10 -18 10 -18 11 4 0 12 0 25 -1 28 0 4 3 10 9 13 5 3 14 15 21 26 l13 20
-8 -20 c-4 -11 -8 -30 -8 -42 -1 -13 -5 -23 -9 -23 -7 0 -5 -57 6 -123 3 -20
-1 -31 -14 -38 -11 -5 -19 -8 -20 -7 -5 17 -5 55 -1 62 12 20 7 57 -9 72 -15
13 -17 13 -22 -1 -10 -25 -28 -17 -21 10 4 15 2 25 -5 25 -6 0 -11 -5 -11 -12
0 -6 -3 -9 -6 -6 -3 4 2 17 10 31 9 13 14 32 10 41 -3 9 0 24 7 33 12 14 12
16 0 8 -12 -7 -13 2 -6 51 10 77 13 99 15 99 3 0 9 37 15 84 3 24 17 73 31
110 14 36 39 104 55 151 38 106 129 291 141 284 5 -3 8 -2 7 3 -3 18 2 33 11
33 6 0 10 -6 11 -12z m1489 -17 c0 -34 -17 -50 -27 -26 -3 10 0 21 8 25 7 5
10 12 6 16 -3 4 -13 2 -20 -5 -8 -6 -23 -8 -33 -4 -17 6 -16 7 2 14 10 4 29 8
42 8 18 1 22 -4 22 -28z m16 -58 c-11 -11 -19 6 -11 24 8 17 8 17 12 0 3 -10
2 -21 -1 -24z m104 3 c0 -24 -16 -36 -49 -36 -14 0 -17 6 -14 24 3 15 10 23
18 20 7 -3 16 -1 20 5 11 19 25 12 25 -13z m560 4 c0 -5 -5 -10 -11 -10 -5 0
-7 5 -4 10 3 6 8 10 11 10 2 0 4 -4 4 -10z m-693 -42 c-3 -7 -5 -2 -5 12 0 14
2 19 5 13 2 -7 2 -19 0 -25z m1033 -111 c22 -6 37 -34 25 -45 -4 -4 -10 -1
-12 6 -3 6 -9 12 -15 12 -6 0 -7 -7 -4 -15 3 -9 -1 -18 -9 -21 -8 -4 -15 -13
-15 -22 0 -12 -3 -13 -12 -4 -9 9 -9 15 0 24 7 7 13 32 13 58 1 25 3 38 6 29
2 -10 13 -19 23 -22z m-110 -17 c0 -5 -5 -10 -11 -10 -5 0 -7 5 -4 10 3 6 8
10 11 10 2 0 4 -4 4 -10z m234 -32 c3 -13 1 -24 -3 -26 -5 -2 -7 -14 -5 -28 4
-22 2 -23 -10 -12 -10 9 -11 18 -4 32 5 10 8 27 5 37 -3 10 -2 19 3 19 4 0 10
-10 14 -22z m-1194 -8 c0 -5 -5 -10 -11 -10 -5 0 -7 5 -4 10 3 6 8 10 11 10 2
0 4 -4 4 -10z m993 -10 c-3 -12 -8 -19 -11 -16 -5 6 5 36 12 36 2 0 2 -9 -1
-20z m244 -12 c-3 -8 -6 -5 -6 6 -1 11 2 17 5 13 3 -3 4 -12 1 -19z m-290 -10
c-3 -8 -6 -5 -6 6 -1 11 2 17 5 13 3 -3 4 -12 1 -19z m313 -12 c0 -3 -4 -8
-10 -11 -5 -3 -10 -1 -10 4 0 6 5 11 10 11 6 0 10 -2 10 -4z m-4 -68 c18 -35
8 -58 -13 -29 -8 12 -11 26 -8 31 3 6 2 10 -3 10 -6 0 -12 7 -15 14 -11 27 23
5 39 -26z m18 26 c3 -8 2 -12 -4 -9 -6 3 -10 10 -10 16 0 14 7 11 14 -7z m21
-61 c-2 -16 2 -34 7 -40 8 -10 6 -13 -5 -13 -12 0 -16 10 -14 40 1 22 4 40 8
40 4 0 6 -12 4 -27z m75 -4 c0 -11 -4 -17 -10 -14 -5 3 -10 13 -10 21 0 8 5
14 10 14 6 0 10 -9 10 -21z m-1485 -49 c3 -6 -1 -7 -9 -4 -18 7 -21 14 -7 14
6 0 13 -4 16 -10z m1460 -8 c-3 -3 -11 0 -18 7 -9 10 -8 11 6 5 10 -3 15 -9
12 -12z m52 -64 c-3 -8 -6 -5 -6 6 -1 11 2 17 5 13 3 -3 4 -12 1 -19z m-124
-5 c-21 -4 -21 -5 -5 -22 10 -10 22 -14 28 -10 13 10 54 -25 54 -47 0 -8 4
-13 9 -10 11 7 23 -22 15 -35 -7 -12 15 -41 26 -34 4 2 5 -7 2 -20 -2 -14 -9
-25 -15 -25 -6 0 -7 3 -3 7 3 4 -8 21 -25 39 -23 23 -30 39 -27 56 5 27 -16
52 -37 44 -16 -6 -58 41 -49 55 3 5 15 8 27 8 l22 -2 -22 -4z m111 -59 c10
-25 -1 -29 -14 -5 -6 12 -7 21 -1 21 5 0 12 -7 15 -16z m106 -6 c0 -7 -4 -19
-9 -27 -6 -9 -8 -5 -8 13 0 14 3 26 8 26 5 0 9 -6 9 -12z m-3085 -109 c-5 -35
-15 -52 -15 -26 0 10 -4 17 -10 17 -5 0 -10 5 -10 11 0 6 7 9 15 5 8 -3 14 -2
14 2 -2 11 1 22 5 22 3 0 3 -14 1 -31z m-42 -44 c-3 -9 -8 -14 -10 -11 -3 3
-2 9 2 15 9 16 15 13 8 -4z m3045 -61 c0 -19 -2 -34 -4 -31 -8 8 -11 67 -4 67
5 0 8 -16 8 -36z m-3177 -131 c-8 -15 -10 -15 -11 -2 0 17 10 32 18 25 2 -3
-1 -13 -7 -23z m46 -15 c-3 -8 -6 -5 -6 6 -1 11 2 17 5 13 3 -3 4 -12 1 -19z
m3233 -24 c0 -8 6 -11 15 -8 12 5 13 10 4 20 -13 16 -1 17 41 4 24 -7 24 -8 5
-15 -11 -5 -22 -12 -25 -15 -3 -4 -14 -10 -25 -13 -16 -5 -23 1 -37 35 -18 41
-18 41 2 23 11 -10 20 -24 20 -31z m-3208 14 c-7 -7 -12 -8 -12 -2 0 14 12 26
19 19 2 -3 -1 -11 -7 -17z m78 18 c0 -3 -4 -8 -10 -11 -5 -3 -10 -1 -10 4 0 6
5 11 10 11 6 0 10 -2 10 -4z m1885 -16 c3 -5 12 -7 20 -4 8 3 22 -1 30 -10 9
-9 25 -16 36 -16 18 0 58 -18 69 -31 3 -3 14 -9 25 -13 16 -6 17 -9 5 -16 -13
-8 -12 -10 3 -10 10 0 16 -4 13 -9 -3 -5 -36 -8 -73 -7 -54 1 -76 7 -108 27
-22 14 -48 28 -58 32 -10 4 -15 12 -12 17 5 8 11 7 21 -1 11 -9 14 -8 14 4 0
9 -4 19 -10 22 -5 3 -10 10 -10 16 0 12 27 12 35 -1z m-1860 -21 c11 -16 1
-19 -13 -3 -7 8 -8 14 -3 14 5 0 13 -5 16 -11z m3166 -32 c-10 -9 -11 -8 -5 6
3 10 9 15 12 12 3 -3 0 -11 -7 -18z m-2061 -2 c0 -8 -4 -15 -9 -15 -13 0 -22
16 -14 24 11 11 23 6 23 -9z m-1210 -4 c0 -6 -4 -12 -10 -16 -5 -3 -7 -13 -4
-23 5 -16 5 -16 -5 0 -6 9 -8 23 -5 32 7 17 24 22 24 7z m3234 -16 c3 -8 1
-15 -4 -15 -6 0 -10 7 -10 15 0 8 2 15 4 15 2 0 6 -7 10 -15z m111 -5 c3 -5
-1 -10 -9 -10 -9 0 -16 5 -16 10 0 6 4 10 9 10 6 0 13 -4 16 -10z m-3305 -14
c0 -3 -4 -8 -10 -11 -5 -3 -10 -1 -10 4 0 6 5 11 10 11 6 0 10 -2 10 -4z
m1170 -16 c0 -5 -4 -10 -10 -10 -5 0 -10 5 -10 10 0 6 5 10 10 10 6 0 10 -4
10 -10z m1898 -25 c-2 -2 -41 -9 -88 -14 -72 -9 -169 -29 -285 -60 -44 -11
-148 -13 -164 -2 -8 5 13 11 62 15 82 8 199 40 176 49 -8 3 2 3 22 0 20 -3 67
0 105 7 38 6 88 12 112 12 32 0 42 4 42 17 1 14 2 13 11 -2 6 -10 9 -20 7 -22z
m-3028 21 c0 -2 -7 -7 -16 -10 -8 -3 -12 -2 -9 4 6 10 25 14 25 6z m3070 -6
c0 -5 11 -12 25 -16 14 -3 30 -16 37 -27 10 -20 10 -20 -17 1 -15 12 -38 22
-51 22 -17 0 -22 4 -18 15 7 17 24 20 24 5z m-1126 -66 c4 -12 2 -12 -14 -4
-11 6 -20 15 -20 20 0 14 28 1 34 -16z m74 19 c18 -4 20 -8 10 -14 -11 -7 -10
-11 2 -19 8 -5 12 -10 8 -10 -3 0 -13 -3 -22 -6 -11 -4 -16 -1 -16 10 0 9 -7
19 -15 22 -8 4 -15 10 -15 15 0 10 16 11 48 2z m-985 -48 c51 -47 49 -51 -15
-46 -16 1 -28 -3 -28 -8 0 -6 5 -11 11 -11 6 0 18 -8 27 -17 16 -16 16 -16 0
-10 -10 3 -18 2 -18 -3 0 -15 -40 -12 -56 5 -9 8 -11 15 -5 15 14 0 14 45 1
70 -8 15 -7 17 12 12 18 -4 20 -2 16 16 -9 32 1 28 55 -23z m1971 20 c3 -8 1
-15 -4 -15 -6 0 -10 7 -10 15 0 8 2 15 4 15 2 0 6 -7 10 -15z m86 -16 c0 -6
-4 -7 -10 -4 -5 3 -10 11 -10 16 0 6 5 7 10 4 6 -3 10 -11 10 -16z m-1257 -9
c19 0 26 -6 30 -27 5 -29 -11 -63 -30 -63 -7 0 -14 8 -14 18 -1 16 -2 16 -6 0
-5 -22 -23 -24 -23 -3 0 8 -4 15 -10 15 -5 0 -10 7 -10 15 0 8 5 14 11 13 6
-2 14 3 16 10 3 7 -4 12 -16 12 -12 0 -21 4 -21 8 0 16 13 21 31 12 10 -6 29
-10 42 -10z m60 -11 c3 -13 1 -19 -6 -16 -15 5 -22 37 -9 37 5 0 12 -9 15 -21z
m158 -20 c-11 -12 -24 -19 -28 -15 -4 4 0 12 10 17 9 6 17 17 17 26 0 13 3 14
11 6 8 -8 6 -17 -10 -34z m-2141 -75 c0 -8 -4 -12 -10 -9 -5 3 -10 10 -10 16
0 5 5 9 10 9 6 0 10 -7 10 -16z m1139 -184 c0 -9 -4 -8 -9 5 -5 11 -9 27 -9
35 0 9 4 8 9 -5 5 -11 9 -27 9 -35z m-89 -40 c0 -5 -8 -10 -17 -10 -15 0 -16
2 -3 10 19 12 20 12 20 0z m-1253 -6 c-3 -3 -12 -4 -19 -1 -8 3 -5 6 6 6 11 1
17 -2 13 -5z m1503 2 c0 -3 -4 -8 -10 -11 -5 -3 -10 -1 -10 4 0 6 5 11 10 11
6 0 10 -2 10 -4z m-1246 -51 c8 -48 -5 -85 -29 -85 -8 0 -15 5 -15 10 0 6 -46
10 -117 10 l-118 1 30 24 c34 28 177 84 216 84 24 1 27 -4 33 -44z m1039 -7
c-2 -5 1 -8 6 -8 6 0 11 -9 11 -21 0 -11 4 -18 8 -15 4 2 20 -15 35 -38 14
-23 39 -49 54 -56 16 -8 38 -23 50 -34 13 -11 26 -16 30 -12 4 4 0 12 -10 17
-21 12 -23 39 -2 39 8 0 15 -7 15 -15 0 -8 7 -15 16 -15 8 0 12 -5 9 -11 -4
-6 1 -16 11 -24 11 -7 16 -17 11 -21 -4 -4 -13 -2 -19 4 -16 16 -28 15 -28 -2
0 -8 7 -17 16 -20 8 -3 12 -10 9 -16 -3 -5 0 -10 8 -10 7 0 23 -9 35 -20 12
-11 26 -20 32 -20 26 0 42 -31 36 -69 -6 -37 -3 -41 51 -92 l58 -54 2 -68 c4
-79 -14 -128 -53 -146 -33 -15 -49 -14 -64 4 -7 8 -18 14 -24 13 -6 -1 -31 4
-55 11 -26 7 -60 10 -85 5 -46 -7 -136 -62 -136 -81 0 -7 -4 -13 -9 -13 -5 0
-28 -16 -51 -35 -51 -43 -67 -44 -103 -5 -16 17 -33 30 -38 30 -5 0 -7 11 -3
25 4 18 1 27 -10 31 -8 3 -18 22 -22 42 -4 21 -11 45 -15 54 -5 10 -5 19 0 22
5 3 11 19 13 36 3 22 0 30 -11 31 -13 1 -12 2 2 6 20 5 24 52 5 71 -7 7 -8 12
-2 12 5 0 10 15 11 33 3 45 4 119 3 137 -2 22 10 102 17 120 7 19 11 36 19 83
3 20 10 37 15 37 5 0 17 8 27 18 10 9 36 32 57 50 36 31 38 32 55 15 10 -10
16 -21 13 -25z m-73 22 c0 -5 -4 -10 -10 -10 -5 0 -10 5 -10 10 0 6 5 10 10
10 6 0 10 -4 10 -10z m960 -30 c0 -5 -4 -10 -10 -10 -5 0 -10 5 -10 10 0 6 5
10 10 10 6 0 10 -4 10 -10z m192 -32 c-7 -7 -12 -8 -12 -2 0 14 12 26 19 19 2
-3 -1 -11 -7 -17z m-1981 -36 c-6 -2 -11 -10 -11 -18 0 -8 -4 -14 -10 -14 -11
0 -14 43 -3 53 3 4 13 1 21 -5 9 -8 10 -14 3 -16z m1979 -42 c0 -5 -4 -10 -10
-10 -5 0 -10 5 -10 10 0 6 5 10 10 10 6 0 10 -4 10 -10z m-1439 -273 c-10 -9
-11 -8 -5 6 3 10 9 15 12 12 3 -3 0 -11 -7 -18z m-738 -72 c4 0 7 -3 7 -7 0
-5 0 -17 0 -28 0 -14 -7 -20 -22 -20 -15 0 -19 3 -11 8 8 5 9 13 3 22 -14 22
-12 43 3 33 6 -4 15 -8 20 -8z m664 -187 c-3 -8 -6 -5 -6 6 -1 11 2 17 5 13 3
-3 4 -12 1 -19z m-76 -25 c-8 -15 -10 -15 -11 -2 0 17 10 32 18 25 2 -3 -1
-13 -7 -23z m-475 5 c4 -7 3 -8 -4 -4 -7 4 -12 1 -12 -8 0 -9 -4 -16 -10 -16
-14 0 -13 13 2 28 15 15 15 15 24 0z m1494 -38 c0 -5 7 -10 16 -10 8 0 20 -13
25 -30 7 -19 18 -30 30 -30 10 0 19 -4 19 -10 0 -5 6 -10 13 -10 8 0 22 -9 32
-20 19 -20 41 -28 30 -10 -3 6 3 10 14 10 12 0 21 -6 21 -14 0 -8 11 -17 25
-20 14 -4 23 -11 20 -16 -6 -10 -1 -12 28 -14 17 -1 110 -134 102 -146 -3 -5
-2 -10 2 -10 11 0 30 -56 32 -94 1 -20 -3 -27 -12 -23 -8 3 -14 0 -15 -6 -9
-66 -20 -100 -26 -85 -4 9 -6 27 -4 40 2 14 -5 31 -20 46 -54 52 -92 63 -92
26 0 -8 -4 -12 -10 -9 -15 10 -12 -2 6 -20 9 -9 13 -19 9 -23 -4 -4 -10 -1
-12 6 -3 6 -12 12 -21 12 -8 0 -23 7 -33 16 -17 16 -18 15 -6 -10 7 -15 20
-26 32 -26 14 0 16 -3 7 -12 -9 -9 -18 -9 -37 0 -19 9 -24 9 -22 -1 1 -6 7
-16 12 -20 6 -5 1 -6 -10 -3 -87 22 -105 28 -110 36 -3 6 -21 10 -40 10 -18 0
-40 7 -49 15 -8 8 -17 15 -20 15 -2 0 -17 5 -33 12 -30 12 -38 14 -65 16 -10
1 -18 7 -18 13 0 5 5 7 12 3 7 -5 25 -7 40 -6 15 1 28 -3 28 -9 0 -6 7 -4 15
5 8 8 15 19 15 25 0 6 7 11 15 11 8 0 15 7 15 16 0 14 -3 14 -15 4 -13 -10
-15 -9 -15 8 0 15 5 20 15 16 11 -5 13 -2 9 10 -3 9 -15 16 -25 16 -21 0 -26
16 -7 22 17 6 0 28 -22 28 -10 0 -21 8 -25 18 -6 16 -7 16 -17 -2 -10 -17 -12
-16 -24 14 -11 26 -17 30 -28 21 -22 -18 -29 4 -11 32 9 14 13 32 9 42 -6 14
-3 16 13 11 12 -4 28 1 44 14 74 62 103 86 113 97 14 15 26 16 26 3z m-1520
-21 c0 -5 -4 -8 -9 -5 -5 3 -12 -4 -16 -17 -6 -20 -8 -20 -12 -3 -3 10 1 22 9
27 18 12 28 11 28 -2z m1210 -69 c0 -11 -7 -20 -15 -20 -18 0 -19 6 -2 25 16
19 17 18 17 -5z m-1230 0 c0 -5 -5 -10 -11 -10 -5 0 -7 5 -4 10 3 6 8 10 11
10 2 0 4 -4 4 -10z m1445 -180 c-3 -5 -10 -10 -16 -10 -5 0 -9 5 -9 10 0 6 7
10 16 10 8 0 12 -4 9 -10z m-28 -106 c-3 -3 -12 -4 -19 -1 -8 3 -5 6 6 6 11 1
17 -2 13 -5z m458 -105 c-7 -10 -35 -1 -35 11 0 5 9 6 20 3 11 -3 17 -9 15
-14z m89 -4 c4 -10 -1 -15 -14 -15 -11 0 -20 7 -20 15 0 8 6 15 14 15 8 0 16
-7 20 -15z m-37 -57 c-3 -7 -5 -2 -5 12 0 14 2 19 5 13 2 -7 2 -19 0 -25z m28
-47 c3 -5 1 -12 -5 -16 -5 -3 -10 1 -10 9 0 18 6 21 15 7z m-510 -32 c6 0 34
3 63 6 48 5 53 3 61 -17 10 -28 -12 -66 -46 -79 -22 -8 -22 -10 -7 -28 15 -17
19 -17 31 -5 16 16 33 19 33 5 0 -5 -21 -30 -47 -56 -44 -45 -48 -47 -77 -37
-35 14 -44 9 -26 -13 18 -21 5 -31 -15 -12 -10 11 -15 30 -13 56 3 34 7 40 31
45 20 4 27 11 25 23 -5 25 -25 27 -31 2 -5 -20 -10 -21 -55 -16 -30 3 -71 0
-102 -8 -78 -20 -145 -23 -145 -5 -1 8 -7 14 -14 12 -8 -1 -10 2 -5 10 5 7 7
22 6 33 -3 31 18 49 81 70 45 15 62 17 76 8 10 -6 22 -8 27 -3 12 12 72 19
109 13 17 -3 35 -5 40 -4z m-365 -80 c0 -22 0 -22 -37 -8 -26 10 -27 11 -10
24 24 17 47 9 47 -16z m845 21 c3 -5 -1 -10 -9 -10 -9 0 -16 5 -16 10 0 6 4
10 9 10 6 0 13 -4 16 -10z m-951 -45 c3 -8 1 -15 -4 -15 -6 0 -10 7 -10 15 0
8 2 15 4 15 2 0 6 -7 10 -15z m61 5 c3 -5 0 -10 -9 -10 -8 0 -16 -6 -18 -12
-3 -8 -9 -4 -17 10 -11 20 -10 22 13 22 14 0 28 -4 31 -10z m22 -22 c-3 -8 -6
-5 -6 6 -1 11 2 17 5 13 3 -3 4 -12 1 -19z m-47 -38 c0 -5 -5 -10 -11 -10 -5
0 -7 5 -4 10 3 6 8 10 11 10 2 0 4 -4 4 -10z m363 -60 c-3 -12 -8 -19 -11 -16
-5 6 5 36 12 36 2 0 2 -9 -1 -20z m2057 -200 c0 -5 -4 -10 -10 -10 -5 0 -10 5
-10 10 0 6 5 10 10 10 6 0 10 -4 10 -10z m-2890 -442 c0 -4 -7 -8 -15 -8 -9 0
-18 -7 -21 -15 -4 -8 -12 -15 -20 -15 -8 0 -14 -4 -14 -10 0 -5 -6 -10 -12
-10 -7 0 -39 -21 -71 -46 -50 -39 -61 -44 -75 -32 -14 11 -15 11 -9 -5 4 -11
1 -20 -8 -23 -8 -4 -15 -18 -15 -33 l-1 -26 -13 24 c-13 23 -14 23 -19 5 -4
-17 -5 -16 -6 4 -1 13 5 22 13 22 20 0 28 28 14 53 -8 17 -13 18 -16 7 -3 -7
0 -16 7 -18 6 -2 8 -8 5 -14 -3 -5 -13 0 -21 11 -8 12 -12 25 -8 30 3 5 1 13
-5 16 -8 5 -7 11 1 21 6 7 15 11 20 8 5 -3 9 0 9 5 0 6 6 11 14 11 7 0 19 7
26 15 7 9 19 14 27 11 8 -3 13 2 13 14 0 11 5 20 10 20 6 0 10 -6 10 -12 0 -7
7 -2 16 10 9 13 22 21 30 18 7 -3 16 -1 20 5 3 5 14 7 24 4 10 -3 21 -1 25 5
7 12 65 -35 65 -52z m1148 -73 c-3 -3 -9 2 -12 12 -6 14 -5 15 5 6 7 -7 10
-15 7 -18z m-1478 -35 c0 -5 -4 -10 -10 -10 -5 0 -10 5 -10 10 0 6 5 10 10 10
6 0 10 -4 10 -10z m1220 -10 c0 -5 -5 -10 -11 -10 -5 0 -7 5 -4 10 3 6 8 10
11 10 2 0 4 -4 4 -10z m493 -254 c6 -16 -2 -28 -14 -20 -12 7 -11 34 0 34 5 0
11 -6 14 -14z m-2005 -24 c-32 -66 -54 -102 -60 -102 -4 0 -8 -9 -8 -20 0 -10
-16 -35 -35 -55 -39 -38 -47 -43 -39 -20 12 30 -5 14 -38 -36 -35 -54 -35 -54
-37 -94 -1 -18 -7 -25 -21 -25 -16 0 -19 -5 -14 -27 4 -25 0 -30 -37 -48 -23
-11 -42 -24 -41 -30 1 -5 -10 -16 -24 -23 -13 -7 -24 -17 -24 -22 0 -4 -15
-23 -32 -41 -18 -18 -32 -38 -30 -46 2 -7 -2 -13 -7 -13 -5 0 -13 -10 -17 -22
-3 -13 -19 -42 -35 -66 -16 -24 -29 -52 -29 -63 0 -10 -5 -19 -11 -19 -5 0 -8
-4 -5 -8 3 -5 -2 -21 -10 -36 -7 -16 -14 -44 -14 -62 0 -23 -5 -34 -14 -34
-10 0 -14 -9 -13 -27 2 -24 -2 -28 -23 -29 -25 0 -27 -5 -15 -36 5 -13 0 -19
-19 -24 -17 -4 -28 -15 -33 -32 -3 -15 -17 -38 -30 -52 -12 -13 -24 -34 -24
-45 -1 -11 -2 -27 -3 -36 -1 -9 -7 -23 -15 -32 -9 -11 -10 -17 -2 -17 8 0 8
-6 2 -17 -25 -47 -33 -106 -19 -135 6 -12 5 -18 -3 -18 -7 0 -18 -8 -25 -17
-13 -17 -13 -17 -14 0 0 21 -20 23 -20 2 0 -8 -9 -15 -19 -15 -11 0 -22 -4
-26 -9 -11 -18 -61 -38 -80 -31 -19 7 -19 7 0 18 18 10 18 11 2 12 -10 0 -20
6 -23 14 -3 8 -20 17 -38 20 -18 4 -41 15 -51 27 -11 11 -25 17 -32 15 -15 -6
-18 10 -3 19 6 3 10 11 10 16 0 6 -4 8 -9 5 -22 -14 -36 6 -39 57 -1 28 -5 70
-8 92 l-5 40 20 -22 c26 -31 28 -29 27 15 -1 29 2 36 16 34 9 -1 19 2 23 8 3
5 16 10 28 10 18 0 19 2 7 10 -12 8 -12 10 4 16 14 5 17 14 12 35 -3 16 -1 29
4 29 5 0 7 6 4 14 -3 8 -1 17 5 21 14 8 14 55 1 55 -5 0 -10 -7 -10 -15 0 -8
-6 -12 -14 -9 -8 3 -13 11 -10 19 6 14 -40 30 -57 20 -5 -4 -12 0 -15 8 -2 7
-18 14 -35 14 -17 0 -35 6 -41 14 -7 10 -8 8 -3 -8 5 -17 2 -23 -9 -23 -8 0
-17 4 -21 9 -3 6 -26 13 -51 17 -29 4 -44 11 -41 18 3 8 -6 11 -27 10 -37 -3
-66 20 -66 53 0 13 -5 22 -12 20 -8 -1 -13 9 -13 28 0 19 -9 38 -24 52 -19 19
-22 28 -17 59 6 28 3 39 -11 50 -17 14 -17 14 0 28 15 12 16 18 8 35 -12 22 3
60 24 62 5 0 -1 5 -15 11 l-25 10 23 9 c18 7 22 14 17 29 -5 15 -2 20 12 21
11 0 13 2 5 6 -10 4 -7 9 8 20 15 10 18 19 12 25 -7 7 -1 19 19 36 16 13 28
29 26 35 -3 11 37 59 48 57 3 -1 17 6 31 14 13 9 24 13 24 8 0 -4 16 -8 35 -9
19 -1 35 3 35 8 0 5 11 3 25 -3 14 -6 25 -17 25 -25 0 -16 16 -17 25 -2 5 7
13 4 26 -7 15 -14 21 -14 34 -4 8 7 15 8 15 3 0 -17 83 -41 130 -38 25 2 64
-4 90 -14 32 -12 58 -15 90 -10 25 3 50 4 55 0 12 -7 25 -8 127 -15 43 -3 82
-7 87 -10 17 -11 121 -15 121 -5 0 5 5 9 11 9 7 0 22 11 35 25 13 14 27 25 33
25 5 0 13 9 16 20 3 11 13 20 21 20 8 0 14 7 14 16 0 19 40 64 57 64 7 0 10 6
7 14 -3 8 3 16 16 19 12 3 24 15 27 26 3 12 12 21 19 21 8 0 14 6 14 13 0 7 9
18 20 25 11 7 20 19 20 27 0 13 4 14 21 5 11 -6 19 -14 17 -18z m2085 -9 c-7
-2 -19 -2 -25 0 -7 3 -2 5 12 5 14 0 19 -2 13 -5z m497 -336 c0 -5 -4 -5 -10
-2 -5 3 -10 14 -10 23 0 15 2 15 10 2 5 -8 10 -19 10 -23z m1720 -117 c0 -5
-2 -10 -4 -10 -3 0 -8 5 -11 10 -3 6 -1 10 4 10 6 0 11 -4 11 -10z m-104 -77
c-7 -7 -26 7 -26 19 0 6 6 6 15 -2 9 -7 13 -15 11 -17z m154 9 c-8 -3 -18 -9
-21 -15 -4 -5 -12 -6 -19 -2 -14 9 29 35 45 27 5 -3 2 -8 -5 -10z m-710 -6 c0
-3 -4 -8 -10 -11 -5 -3 -10 -1 -10 4 0 6 5 11 10 11 6 0 10 -2 10 -4z m652
-47 c-23 -9 -32 -2 -32 22 0 19 1 19 24 2 21 -15 22 -19 8 -24z m-44 1 c-1
-18 -8 -30 -16 -30 -11 0 -12 3 -3 14 6 8 11 18 10 22 -2 14 0 24 6 24 3 0 4
-13 3 -30z m-53 -30 c-3 -5 -11 -10 -16 -10 -6 0 -7 5 -4 10 3 6 11 10 16 10
6 0 7 -4 4 -10z m105 -10 c0 -5 -4 -10 -10 -10 -5 0 -10 5 -10 10 0 6 5 10 10
10 6 0 10 -4 10 -10z m-110 -30 c0 -5 -4 -10 -10 -10 -5 0 -10 5 -10 10 0 6 5
10 10 10 6 0 10 -4 10 -10z m-590 -40 c0 -5 -4 -10 -10 -10 -5 0 -10 5 -10 10
0 6 5 10 10 10 6 0 10 -4 10 -10z m548 -15 c-3 -3 -9 2 -12 12 -6 14 -5 15 5
6 7 -7 10 -15 7 -18z m82 5 c0 -5 -5 -10 -11 -10 -5 0 -7 5 -4 10 3 6 8 10 11
10 2 0 4 -4 4 -10z m-1043 -62 c-3 -8 -6 -5 -6 6 -1 11 2 17 5 13 3 -3 4 -12
1 -19z m970 0 c-3 -8 -6 -5 -6 6 -1 11 2 17 5 13 3 -3 4 -12 1 -19z m-999 -66
c9 -7 8 -14 -8 -32 -16 -18 -20 -20 -20 -7 0 10 6 17 13 18 10 0 10 2 0 6 -14
5 -18 23 -5 23 4 0 13 -4 20 -8z m-71 -51 c-1 -16 -7 -27 -13 -24 -9 3 -9 10
0 29 14 31 16 30 13 -5z m1103 5 c0 -3 -4 -8 -10 -11 -5 -3 -10 -1 -10 4 0 6
5 11 10 11 6 0 10 -2 10 -4z m-1156 -57 c-31 -12 -39 -10 -19 5 11 8 24 12 29
8 5 -3 1 -9 -10 -13z m34 -13 c-7 -7 -19 -11 -27 -8 -11 4 -10 7 5 13 29 12
36 10 22 -5z m-33 -22 c19 -15 19 -15 -7 -9 -28 7 -41 -9 -15 -18 6 -2 0 -3
-15 -1 -15 2 -28 -2 -31 -10 -3 -8 1 -13 10 -12 9 0 18 -5 21 -13 3 -10 0 -12
-11 -8 -11 4 -14 2 -10 -9 3 -8 -1 -14 -9 -14 -8 0 -25 -11 -38 -25 -13 -14
-30 -23 -37 -21 -7 3 -13 1 -13 -4 0 -6 6 -10 13 -10 6 -1 -1 -8 -17 -16 -23
-13 -26 -18 -15 -26 12 -8 11 -9 -1 -5 -8 2 -15 12 -15 23 0 12 -8 20 -22 22
-13 2 -23 8 -23 13 0 6 5 7 11 4 6 -4 17 2 25 14 15 21 41 31 29 11 -3 -5 -1
-10 4 -10 6 0 11 5 11 10 0 6 3 9 8 9 21 -4 24 3 6 15 -19 14 -19 15 1 22 23
9 35 18 73 56 31 31 40 33 67 12z m18 -59 c-3 -9 -8 -14 -10 -11 -3 3 -2 9 2
15 9 16 15 13 8 -4z m1152 5 c-3 -5 -11 -10 -16 -10 -6 0 -7 5 -4 10 3 6 11
10 16 10 6 0 7 -4 4 -10z m-1155 -50 c0 -5 -2 -10 -4 -10 -3 0 -8 5 -11 10 -3
6 -1 10 4 10 6 0 11 -4 11 -10z m1160 6 c0 -11 -19 -15 -25 -6 -3 5 1 10 9 10
9 0 16 -2 16 -4z m-1267 -84 c-3 -12 -9 -22 -14 -22 -12 0 -11 7 2 32 13 25
20 19 12 -10z m-104 9 c2 -1 -2 -7 -8 -15 -9 -11 -9 -15 1 -19 10 -4 10 -6 0
-6 -7 -1 -15 6 -18 14 -4 8 -12 15 -19 15 -8 0 -16 4 -19 9 -4 7 42 8 63 2z
m-100 -68 c1 21 41 24 41 2 0 -8 -4 -15 -10 -15 -5 0 -10 -7 -10 -15 0 -9 -11
-20 -24 -25 -13 -5 -25 -13 -27 -18 -6 -14 -66 6 -66 22 0 11 5 12 18 5 23
-12 50 -12 30 0 -11 7 -10 11 5 20 17 11 16 11 -6 5 -22 -6 -23 -5 -11 10 8 9
20 15 28 12 7 -3 13 2 14 12 1 11 4 8 9 -8 5 -17 8 -19 9 -7z m121 -24 c0 -5
-7 -9 -15 -9 -15 0 -20 12 -9 23 8 8 24 -1 24 -14z m1870 11 c0 -5 -5 -10 -11
-10 -5 0 -7 5 -4 10 3 6 8 10 11 10 2 0 4 -4 4 -10z m-2675 -10 c8 -13 -5 -13
-25 0 -13 8 -13 10 2 10 9 0 20 -4 23 -10z m790 -28 c-7 -8 -35 7 -35 18 0 6
7 6 20 -2 10 -7 17 -14 15 -16z m-240 -42 c-3 -5 -10 -10 -16 -10 -5 0 -9 5
-9 10 0 6 7 10 16 10 8 0 12 -4 9 -10z m75 -10 c0 -5 -6 -10 -14 -10 -8 0 -18
5 -21 10 -3 6 3 10 14 10 12 0 21 -4 21 -10z m120 -10 c0 -5 -7 -10 -16 -10
-8 0 -12 5 -9 10 3 6 10 10 16 10 5 0 9 -4 9 -10z m-230 -14 c0 -8 -5 -18 -12
-22 -7 -5 -9 -2 -5 9 3 9 1 18 -6 21 -7 2 -4 5 6 5 9 1 17 -5 17 -13z m37 8
c-3 -3 -12 -4 -19 -1 -8 3 -5 6 6 6 11 1 17 -2 13 -5z m1960 -10 c-3 -3 -12
-4 -19 -1 -8 3 -5 6 6 6 11 1 17 -2 13 -5z m-5707 -8 c0 -3 -4 -8 -10 -11 -5
-3 -10 -1 -10 4 0 6 5 11 10 11 6 0 10 -2 10 -4z m3750 -16 c-11 -11 -26 -20
-32 -20 -10 0 -9 3 1 9 7 5 10 14 7 20 -5 7 2 11 18 11 l26 0 -20 -20z m-265
-10 c3 -5 1 -10 -4 -10 -6 0 -11 5 -11 10 0 6 2 10 4 10 3 0 8 -4 11 -10z
m1354 -29 c-1 -13 -2 -13 -6 2 -2 9 -9 17 -14 17 -5 0 -9 5 -9 11 0 8 5 8 15
-1 8 -7 14 -20 14 -29z m-1139 0 c0 -10 -25 -21 -48 -21 -12 0 -9 4 8 14 31
17 40 19 40 7z m67 -17 c-3 -3 -12 -4 -19 -1 -8 3 -5 6 6 6 11 1 17 -2 13 -5z
m-37 -24 c0 -5 -7 -10 -15 -10 -8 0 -15 5 -15 10 0 6 7 10 15 10 8 0 15 -4 15
-10z m-175 -30 c3 -5 -1 -10 -10 -10 -9 0 -13 5 -10 10 3 6 8 10 10 10 2 0 7
-4 10 -10z m1928 3 c3 -5 1 -17 -4 -28 l-8 -20 -1 20 c-1 11 -4 14 -7 7 -2 -6
-9 -9 -14 -6 -6 3 -5 11 2 20 13 15 25 18 32 7z m387 -133 c0 -5 -12 -10 -26
-10 -14 0 -23 4 -19 10 3 6 15 10 26 10 10 0 19 -4 19 -10z m10 -34 c0 -3 -4
-8 -10 -11 -5 -3 -10 -1 -10 4 0 6 5 11 10 11 6 0 10 -2 10 -4z m-5758 -100
c-3 -22 -10 -36 -18 -36 -8 0 -14 -6 -14 -14 0 -19 17 -30 23 -16 3 6 4 5 3
-1 -1 -7 -14 -13 -28 -13 -20 -1 -24 2 -20 19 3 11 14 30 25 43 20 21 20 22 1
23 -17 1 -17 2 -1 6 9 2 17 11 17 19 0 8 4 13 8 10 4 -3 6 -21 4 -40z m-81
-135 c-7 -5 -10 -14 -7 -20 4 -6 0 -11 -8 -11 -9 0 -16 4 -16 8 0 12 22 32 35
32 5 0 4 -4 -4 -9z m4556 -13 c-3 -8 -6 -5 -6 6 -1 11 2 17 5 13 3 -3 4 -12 1
-19z m-155 -113 c3 -14 2 -25 -2 -25 -4 0 -10 11 -12 25 -3 14 -2 25 2 25 4 0
10 -11 12 -25z m1478 -10 c-7 -8 -22 -15 -33 -15 -20 0 -20 0 -1 15 27 20 51
20 34 0z m-1430 -15 c0 -5 -4 -10 -10 -10 -5 0 -10 -7 -10 -15 0 -9 -9 -15
-22 -14 -16 1 -18 3 -7 6 10 2 19 13 22 24 5 19 27 27 27 9z m-590 -46 c0 -3
-7 -1 -15 6 -8 7 -15 17 -15 22 0 5 7 3 15 -6 8 -8 15 -18 15 -22z m78 19
c-11 -3 -15 -10 -11 -20 4 -11 2 -14 -5 -9 -21 13 -13 36 11 35 16 -1 17 -3 5
-6z m552 -8 c0 -2 -7 -5 -15 -9 -9 -3 -15 0 -15 9 0 9 6 12 15 9 8 -4 15 -7
15 -9z m-687 -10 c-3 -9 -8 -14 -10 -11 -3 3 -2 9 2 15 9 16 15 13 8 -4z m647
-15 c0 -5 -5 -10 -11 -10 -5 0 -7 5 -4 10 3 6 8 10 11 10 2 0 4 -4 4 -10z
m-40 -10 c0 -5 -4 -10 -10 -10 -5 0 -10 5 -10 10 0 6 5 10 10 10 6 0 10 -4 10
-10z m-663 -32 c-3 -8 -6 -5 -6 6 -1 11 2 17 5 13 3 -3 4 -12 1 -19z m133 -8
c0 -5 -8 -10 -17 -10 -15 0 -16 2 -3 10 19 12 20 12 20 0z m540 5 c0 -7 -30
-13 -34 -7 -3 4 4 9 15 9 10 1 19 0 19 -2z m-600 -9 c0 -3 -4 -8 -10 -11 -5
-3 -10 -1 -10 4 0 6 5 11 10 11 6 0 10 -2 10 -4z m-40 -16 c0 -5 -4 -10 -10
-10 -5 0 -10 5 -10 10 0 6 5 10 10 10 6 0 10 -4 10 -10z m670 6 c0 -3 -4 -8
-10 -11 -5 -3 -10 -1 -10 4 0 6 5 11 10 11 6 0 10 -2 10 -4z m-4618 -52 c-3
-15 -13 -35 -23 -45 -11 -11 -19 -26 -19 -34 0 -9 -9 -15 -22 -15 -17 0 -19
-3 -9 -9 7 -5 10 -14 6 -20 -5 -9 -10 -9 -21 0 -11 9 -14 7 -14 -9 0 -11 5
-22 12 -24 8 -3 4 -12 -10 -26 -12 -12 -22 -21 -23 -19 -1 1 -3 20 -5 42 -3
42 3 50 58 71 13 4 16 13 12 30 -5 18 1 31 26 54 18 16 33 30 35 30 1 0 0 -12
-3 -26z m3924 -15 c11 -18 -33 -8 -51 11 -18 20 -18 20 13 9 18 -6 35 -15 38
-20z m24 21 c0 -5 -4 -10 -10 -10 -5 0 -10 5 -10 10 0 6 5 10 10 10 6 0 10 -4
10 -10z m685 -30 c3 -6 -1 -7 -9 -4 -18 7 -21 14 -7 14 6 0 13 -4 16 -10z
m-780 -20 c3 -5 1 -10 -4 -10 -6 0 -11 5 -11 10 0 6 2 10 4 10 3 0 8 -4 11
-10z m-12 -54 c3 -8 -1 -17 -10 -20 -20 -8 -27 -1 -20 19 8 19 23 20 30 1z
m-13 -67 c0 -11 4 -17 10 -14 6 3 7 -1 4 -10 -6 -14 -8 -14 -25 1 -11 10 -27
14 -40 11 -24 -6 -19 0 13 19 33 17 38 17 38 -7z m-3982 -53 c-7 -7 -19 -11
-25 -9 -18 7 -5 23 18 23 16 0 18 -2 7 -14z m-13 -36 c-3 -5 -10 -10 -16 -10
-5 0 -9 5 -9 10 0 6 7 10 16 10 8 0 12 -4 9 -10z m3895 -70 c0 -5 -5 -10 -11
-10 -5 0 -7 5 -4 10 3 6 8 10 11 10 2 0 4 -4 4 -10z m30 -50 c0 -5 -4 -10 -10
-10 -5 0 -10 5 -10 10 0 6 5 10 10 10 6 0 10 -4 10 -10z m0 -76 c0 -2 -9 -4
-20 -4 -11 0 -20 4 -20 9 0 5 9 7 20 4 11 -3 20 -7 20 -9z m-4075 -14 c-3 -5
-12 -10 -18 -10 -7 0 -6 4 3 10 19 12 23 12 15 0z m3965 -20 c0 -5 -4 -10 -10
-10 -5 0 -10 5 -10 10 0 6 5 10 10 10 6 0 10 -4 10 -10z m77 -1 c-14 -8 -22
-8 -30 0 -8 8 -3 11 19 11 25 -1 27 -2 11 -11z m-127 -19 c0 -5 -2 -10 -4 -10
-3 0 -8 5 -11 10 -3 6 -1 10 4 10 6 0 11 -4 11 -10z m70 -6 c0 -2 -14 -4 -31
-4 -16 0 -28 4 -25 9 5 8 56 3 56 -5z m1635 -54 c3 -5 1 -10 -4 -10 -6 0 -11
5 -11 10 0 6 2 10 4 10 3 0 8 -4 11 -10z m-1621 -55 c-4 -8 -11 -15 -16 -15
-6 0 -5 6 2 15 7 8 14 15 16 15 2 0 1 -7 -2 -15z m-87 -17 c-3 -8 -6 -5 -6 6
-1 11 2 17 5 13 3 -3 4 -12 1 -19z m1703 -31 c0 -5 -4 -5 -10 -2 -5 3 -10 14
-10 23 0 15 2 15 10 2 5 -8 10 -19 10 -23z m-1750 13 c0 -5 -8 -10 -17 -10
-15 0 -16 2 -3 10 19 12 20 12 20 0z m30 -40 c0 -22 -8 -25 -30 -10 -13 9 -13
11 0 20 22 15 30 12 30 -10z m1697 -2 c-3 -8 -6 -5 -6 6 -1 11 2 17 5 13 3 -3
4 -12 1 -19z m-1741 -28 c8 0 11 -6 7 -16 -4 -10 -8 -12 -13 -4 -3 6 -13 9
-21 7 -8 -2 -11 -2 -6 0 4 3 7 12 8 21 0 11 2 12 6 5 2 -7 11 -13 19 -13z
m101 -2 c-3 -8 -6 -5 -6 6 -1 11 2 17 5 13 3 -3 4 -12 1 -19z m-27 -3 c0 -8
-4 -15 -10 -15 -5 0 -7 7 -4 15 4 8 8 15 10 15 2 0 4 -7 4 -15z m-39 -62 c-9
-15 -10 -12 -10 17 0 29 1 32 10 18 7 -12 7 -24 0 -35z m-78 7 c3 -11 1 -18
-4 -14 -5 3 -9 12 -9 20 0 20 7 17 13 -6z m24 -2 c-3 -8 -6 -5 -6 6 -1 11 2
17 5 13 3 -3 4 -12 1 -19z m97 -7 c3 -5 -1 -11 -9 -14 -9 -4 -12 -1 -8 9 6 16
10 17 17 5z"/>
<path d="M4712 7470 c-7 -11 -10 -20 -6 -20 7 0 34 27 34 34 0 13 -16 5 -28
-14z"/>
<path d="M4540 7190 c0 -5 5 -10 10 -10 6 0 10 5 10 10 0 6 -4 10 -10 10 -5 0
-10 -4 -10 -10z"/>
<path d="M5260 6840 c0 -5 5 -10 10 -10 6 0 10 5 10 10 0 6 -4 10 -10 10 -5 0
-10 -4 -10 -10z"/>
<path d="M5180 6833 c0 -4 5 -15 10 -23 8 -13 10 -13 10 2 0 9 -4 20 -10 23
-5 3 -10 3 -10 -2z"/>
<path d="M5250 6805 c7 -8 16 -12 21 -9 13 8 1 24 -18 24 -13 0 -13 -3 -3 -15z"/>
<path d="M5210 6798 c0 -22 23 -65 41 -77 13 -7 20 -6 29 4 10 12 9 15 -9 15
-12 0 -21 6 -21 15 0 8 -4 15 -10 15 -5 0 -10 6 -10 14 0 8 -4 18 -10 21 -5 3
-10 0 -10 -7z"/>
<path d="M5350 6785 c0 -8 7 -15 15 -15 8 0 15 4 15 9 0 5 -7 11 -15 15 -9 3
-15 0 -15 -9z"/>
<path d="M5300 6780 c0 -5 5 -10 10 -10 6 0 10 5 10 10 0 6 -4 10 -10 10 -5 0
-10 -4 -10 -10z"/>
<path d="M5376 6737 c3 -10 9 -15 12 -12 3 3 0 11 -7 18 -10 9 -11 8 -5 -6z"/>
<path d="M5280 6690 c0 -5 5 -10 10 -10 6 0 10 5 10 10 0 6 -4 10 -10 10 -5 0
-10 -4 -10 -10z"/>
<path d="M5313 6643 c9 -9 20 -13 24 -9 4 4 1 11 -7 16 -25 16 -35 11 -17 -7z"/>
<path d="M5360 6621 c0 -5 7 -12 16 -15 14 -5 15 -4 4 9 -14 17 -20 19 -20 6z"/>
<path d="M5408 6573 c7 -3 16 -2 19 1 4 3 -2 6 -13 5 -11 0 -14 -3 -6 -6z"/>
<path d="M5444 6546 c17 -49 86 -102 86 -66 0 6 -5 10 -11 10 -6 0 -27 17 -47
38 -19 20 -32 29 -28 18z"/>
<path d="M5435 6460 c-3 -5 -1 -10 4 -10 6 0 11 5 11 10 0 6 -2 10 -4 10 -3 0
-8 -4 -11 -10z"/>
<path d="M5486 6395 c21 -32 0 -34 -33 -3 -13 12 -23 16 -23 10 0 -6 8 -15 17
-21 14 -7 18 -23 18 -70 0 -34 4 -61 10 -60 6 0 9 7 7 15 -2 8 2 14 8 14 5 0
10 -6 10 -12 1 -7 18 -30 38 -51 31 -31 38 -34 38 -19 0 13 -5 18 -15 14 -10
-4 -12 -1 -7 7 9 14 -21 101 -38 114 -6 5 -1 5 12 2 18 -5 22 -2 22 14 0 12
-6 21 -14 21 -7 0 -22 11 -32 25 -10 14 -22 25 -27 25 -4 0 0 -11 9 -25z m48
-140 c5 -22 4 -26 -4 -15 -5 8 -10 24 -10 34 0 26 6 18 14 -19z"/>
<path d="M5405 6377 c-5 -12 -1 -33 10 -55 10 -21 17 -45 16 -56 -2 -11 2 -16
8 -12 6 4 11 23 11 42 0 26 -3 33 -12 28 -10 -6 -10 -4 0 8 11 14 11 18 -1 25
-8 4 -16 15 -19 23 -5 12 -7 12 -13 -3z"/>
<path d="M5605 6260 c-3 -6 1 -7 9 -4 18 7 21 14 7 14 -6 0 -13 -4 -16 -10z"/>
<path d="M4920 6020 c0 -5 5 -10 11 -10 5 0 7 5 4 10 -3 6 -8 10 -11 10 -2 0
-4 -4 -4 -10z"/>
<path d="M2726 7064 c-4 -10 -2 -13 6 -8 8 5 9 2 5 -9 -3 -9 -2 -19 2 -22 5
-2 11 3 13 13 9 35 -14 59 -26 26z"/>
<path d="M2710 6969 c0 -5 5 -7 10 -4 6 3 10 8 10 11 0 2 -4 4 -10 4 -5 0 -10
-5 -10 -11z"/>
<path d="M2669 6927 c6 -8 9 -16 6 -19 -3 -3 2 -11 12 -19 15 -12 16 -12 10 4
-4 10 -7 25 -7 33 0 8 -7 14 -16 14 -13 0 -14 -3 -5 -13z"/>
<path d="M2670 6840 c0 -11 5 -20 10 -20 6 0 10 9 10 20 0 11 -4 20 -10 20 -5
0 -10 -9 -10 -20z"/>
<path d="M3680 5069 c0 -5 5 -7 10 -4 6 3 10 8 10 11 0 2 -4 4 -10 4 -5 0 -10
-5 -10 -11z"/>
<path d="M4065 4871 c-6 -11 9 -23 19 -14 9 9 7 23 -3 23 -6 0 -12 -4 -16 -9z"/>
<path d="M4260 4530 c0 -5 5 -10 11 -10 5 0 7 5 4 10 -3 6 -8 10 -11 10 -2 0
-4 -4 -4 -10z"/>
<path d="M4070 4516 c0 -8 4 -17 9 -20 5 -4 7 3 4 14 -6 23 -13 26 -13 6z"/>
<path d="M4390 4523 c0 -15 18 -35 23 -27 3 5 -1 15 -9 22 -8 7 -14 9 -14 5z"/>
<path d="M4020 4165 c0 -19 4 -23 17 -18 10 4 12 8 6 10 -7 3 -9 11 -6 19 3 8
0 14 -6 14 -6 0 -11 -11 -11 -25z"/>
<path d="M4020 4111 c0 -5 9 -7 20 -4 11 3 20 7 20 9 0 2 -9 4 -20 4 -11 0
-20 -4 -20 -9z"/>
<path d="M1148 2813 c7 -3 16 -2 19 1 4 3 -2 6 -13 5 -11 0 -14 -3 -6 -6z"/>
<path d="M1470 2030 c0 -5 5 -10 11 -10 5 0 7 5 4 10 -3 6 -8 10 -11 10 -2 0
-4 -4 -4 -10z"/>
<path d="M1360 1870 c0 -5 5 -10 11 -10 5 0 7 5 4 10 -3 6 -8 10 -11 10 -2 0
-4 -4 -4 -10z"/>
<path d="M1657 1683 c-12 -12 -7 -22 8 -17 8 4 15 10 15 15 0 11 -14 12 -23 2z"/>
<path d="M7560 8090 c0 -5 5 -10 10 -10 6 0 10 5 10 10 0 6 -4 10 -10 10 -5 0
-10 -4 -10 -10z"/>
<path d="M7495 8082 c-11 -2 -24 -8 -29 -13 -6 -5 -22 -9 -38 -9 -15 0 -42 -9
-60 -20 -18 -11 -30 -20 -26 -20 4 0 -3 -11 -16 -25 -13 -14 -27 -25 -32 -25
-5 0 -15 -9 -22 -21 -11 -17 -20 -20 -45 -15 -24 5 -29 4 -20 -5 10 -10 6 -15
-14 -26 -14 -7 -37 -14 -50 -15 -18 -2 -22 -7 -17 -21 4 -13 2 -17 -5 -12 -6
3 -25 8 -42 10 -28 4 -29 3 -17 -12 14 -18 14 -18 -37 3 -8 3 -15 1 -15 -6 0
-7 -7 -10 -15 -7 -8 4 -17 2 -20 -3 -4 -6 -13 -7 -24 -1 -10 6 -23 6 -31 1 -8
-5 -18 -6 -23 -3 -5 3 -13 -1 -18 -8 -7 -11 -9 -10 -9 4 0 23 -21 22 -27 -1
-3 -12 -13 -18 -26 -17 -12 1 -35 -2 -52 -7 -16 -5 -39 -11 -50 -13 -11 -1
-24 -3 -29 -4 -5 0 -2 -8 5 -18 13 -15 12 -15 -9 -4 -13 7 -26 10 -30 7 -3 -3
0 -6 6 -6 7 0 12 -5 12 -11 0 -6 -9 -9 -20 -6 -11 3 -23 1 -26 -4 -4 -6 -10
-6 -17 0 -16 13 -51 -13 -44 -33 4 -10 1 -13 -8 -9 -9 3 -18 -2 -21 -12 -5
-13 -9 -14 -15 -3 -6 9 -9 7 -9 -9 0 -14 -6 -23 -15 -23 -8 0 -22 -11 -31 -24
-8 -14 -23 -27 -32 -29 -9 -3 -2 -5 16 -6 45 -1 46 -2 60 -13 8 -7 12 -7 12 2
0 9 4 9 13 3 22 -18 129 -31 252 -33 150 -1 168 -3 177 -15 4 -6 19 1 35 16
37 33 79 59 97 59 8 0 17 6 19 13 4 9 6 8 6 -2 1 -9 5 -10 14 -3 30 24 177 16
177 -10 0 -6 7 -7 15 -4 9 3 18 -1 21 -9 4 -8 10 -12 15 -9 5 3 19 -4 31 -15
12 -12 28 -21 35 -21 7 0 13 -4 13 -10 0 -15 56 -12 72 3 14 14 86 50 103 52
6 1 25 7 43 15 29 11 33 16 30 41 -3 20 0 29 9 29 16 0 17 12 2 27 -7 7 -8 17
-3 25 5 7 9 18 9 23 1 38 97 135 133 135 15 0 20 22 11 45 -4 11 -8 15 -8 8
-1 -8 -7 -8 -26 0 -17 8 -23 18 -19 29 4 15 1 17 -23 12 -20 -4 -35 0 -52 16
-14 11 -35 23 -48 26 -12 4 -20 11 -16 17 4 7 -4 8 -25 4 -18 -4 -34 -2 -38 4
-3 6 -11 3 -20 -8 -13 -17 -13 -17 -14 2 0 16 -2 17 -10 5 -9 -15 -12 -14 -26
10 -5 9 -18 14 -29 12z m-480 -442 c3 -5 2 -10 -4 -10 -5 0 -17 -3 -27 -7 -16
-6 -17 -5 -4 10 17 19 26 21 35 7z m25 -30 c0 -5 -2 -10 -4 -10 -3 0 -8 5 -11
10 -3 6 -1 10 4 10 6 0 11 -4 11 -10z"/>
<path d="M2450 8000 c0 -6 7 -10 15 -10 8 0 15 2 15 4 0 2 -7 6 -15 10 -8 3
-15 1 -15 -4z"/>
<path d="M2606 7783 c-6 -14 -5 -15 5 -6 7 7 10 15 7 18 -3 3 -9 -2 -12 -12z"/>
<path d="M2072 7445 c0 -16 2 -22 5 -12 2 9 2 23 0 30 -3 6 -5 -1 -5 -18z"/>
<path d="M6036 5955 c-18 -13 -18 -15 -3 -15 27 0 82 -69 79 -97 -2 -13 3 -25
11 -29 18 -6 30 -44 15 -44 -7 0 -7 -4 -1 -12 6 -7 11 -32 12 -55 1 -37 -2
-43 -20 -43 -16 0 -19 -4 -14 -17 19 -44 24 -128 10 -158 -13 -27 -35 -117
-51 -214 -3 -18 -19 -54 -35 -80 -63 -101 -101 -183 -90 -194 8 -8 14 -1 22
21 6 18 14 32 19 32 10 0 90 155 90 175 0 8 4 15 8 15 4 0 14 21 21 48 7 26
21 68 32 94 10 26 19 53 19 62 0 8 4 16 8 18 18 7 49 107 51 167 1 35 6 74 11
87 9 23 7 36 -10 79 -4 11 -15 41 -24 66 -18 51 -47 82 -89 98 -37 14 -48 13
-71 -4z"/>
<path d="M5867 5833 c-3 -5 0 -19 8 -29 15 -20 18 -11 6 20 -4 11 -10 15 -14
9z"/>
<path d="M4630 5771 c0 -5 5 -13 10 -16 6 -3 10 -2 10 4 0 5 -4 13 -10 16 -5
3 -10 2 -10 -4z"/>
<path d="M4610 5739 c0 -5 5 -7 10 -4 6 3 10 8 10 11 0 2 -4 4 -10 4 -5 0 -10
-5 -10 -11z"/>
<path d="M5914 5683 c-1 -13 -1 -23 0 -21 1 2 7 10 14 19 10 13 10 18 0 22 -8
3 -14 -5 -14 -20z"/>
<path d="M5736 5620 c-24 -29 -24 -32 -10 -65 17 -43 17 -46 0 -39 -10 4 -8
-7 8 -39 15 -33 21 -63 21 -111 -1 -69 1 -71 48 -67 27 3 20 -28 -10 -42 -21
-9 -27 -9 -31 1 -2 7 -8 10 -13 6 -5 -3 -9 0 -9 5 0 25 -19 8 -39 -34 -26 -56
-27 -91 -2 -105 31 -16 45 -12 97 28 66 50 89 62 120 62 29 0 48 16 58 48 4
12 11 22 15 22 3 0 6 52 5 115 -1 93 -4 118 -18 134 -10 11 -25 17 -37 14 -13
-4 -19 0 -19 11 0 9 -4 16 -10 16 -5 0 -10 7 -10 15 0 10 -10 15 -32 15 -18 0
-46 9 -63 20 -39 25 -39 25 -69 -10z"/>
<path d="M2150 5384 c0 -8 5 -12 10 -9 6 4 8 11 5 16 -9 14 -15 11 -15 -7z"/>
<path d="M1056 5164 c-4 -10 -13 -13 -25 -9 -10 3 -29 1 -42 -4 -13 -5 -18
-10 -10 -10 8 -1 12 -3 9 -6 -3 -3 -17 -1 -31 4 -19 8 -27 7 -31 -4 -4 -10
-14 -13 -33 -9 -21 4 -36 0 -53 -16 l-25 -21 29 6 c17 3 32 2 36 -4 7 -13 98
-31 117 -24 9 4 11 0 7 -11 -3 -9 -1 -16 5 -16 6 0 17 -12 25 -27 l15 -28 1
25 c0 17 3 21 11 13 16 -16 49 -4 49 19 0 10 4 16 10 13 5 -3 8 0 6 7 -12 37
-15 78 -6 73 6 -3 7 1 4 9 -3 9 -12 16 -20 16 -8 0 -14 5 -14 10 0 16 -27 11
-34 -6z m-106 -64 c11 -7 7 -10 -18 -10 -20 0 -31 4 -27 10 8 13 26 13 45 0z"/>
<path d="M720 5070 c0 -5 5 -10 11 -10 5 0 7 5 4 10 -3 6 -8 10 -11 10 -2 0
-4 -4 -4 -10z"/>
<path d="M950 5051 c0 -5 9 -11 21 -14 16 -4 18 -3 8 9 -13 16 -29 19 -29 5z"/>
<path d="M5607 4923 c-6 -9 -10 -64 -8 -108 1 -22 8 -33 28 -42 15 -7 31 -13
36 -13 4 0 5 6 0 13 -4 6 -6 20 -5 30 2 9 -1 17 -7 17 -6 0 -13 23 -17 50 -6
48 -17 69 -27 53z"/>
<path d="M2190 4810 c0 -5 5 -10 10 -10 6 0 10 5 10 10 0 6 -4 10 -10 10 -5 0
-10 -4 -10 -10z"/>
<path d="M5886 4759 c-21 -16 -30 -18 -40 -9 -18 14 -34 -6 -18 -22 13 -13 82
-18 82 -6 0 4 -5 8 -11 8 -6 0 -3 7 5 16 14 14 22 34 12 34 -2 0 -15 -9 -30
-21z"/>
<path d="M2210 4754 c0 -8 5 -12 10 -9 6 4 8 11 5 16 -9 14 -15 11 -15 -7z"/>
<path d="M2180 4728 c0 -5 7 -8 15 -8 9 0 15 -7 13 -17 -2 -11 5 -19 17 -21
17 -4 18 -3 5 13 -12 14 -12 19 -2 22 23 8 12 20 -18 19 -16 -1 -30 -4 -30 -8z"/>
<path d="M2236 4433 c-6 -14 -5 -15 5 -6 7 7 10 15 7 18 -3 3 -9 -2 -12 -12z"/>
<path d="M2240 4400 c0 -5 5 -10 11 -10 5 0 7 5 4 10 -3 6 -8 10 -11 10 -2 0
-4 -4 -4 -10z"/>
<path d="M2203 4338 c16 -6 33 -6 37 -2 5 5 -7 10 -28 10 -37 2 -37 2 -9 -8z"/>
<path d="M2225 4300 c3 -5 8 -10 11 -10 2 0 4 5 4 10 0 6 -5 10 -11 10 -5 0
-7 -4 -4 -10z"/>
<path d="M2176 4291 c-4 -7 -5 -15 -2 -18 9 -9 19 4 14 18 -4 11 -6 11 -12 0z"/>
<path d="M4560 4200 c0 -5 5 -10 10 -10 6 0 10 5 10 10 0 6 -4 10 -10 10 -5 0
-10 -4 -10 -10z"/>
<path d="M2225 4191 c-3 -5 1 -12 7 -14 7 -3 1 -6 -14 -6 -16 -1 -28 -5 -28
-11 0 -14 32 -12 51 3 13 10 14 14 3 25 -7 6 -15 8 -19 3z"/>
<path d="M2320 4160 c0 -5 5 -10 11 -10 5 0 7 5 4 10 -3 6 -8 10 -11 10 -2 0
-4 -4 -4 -10z"/>
<path d="M2249 4144 c-9 -11 -6 -14 19 -14 38 0 50 16 17 22 -14 3 -30 -1 -36
-8z"/>
<path d="M4480 4075 c0 -9 6 -12 15 -9 8 4 12 10 9 15 -8 14 -24 10 -24 -6z"/>
<path d="M6516 3554 c-8 -22 1 -31 16 -16 9 9 9 15 1 23 -7 7 -12 5 -17 -7z"/>
<path d="M6511 3498 c0 -9 -9 -31 -18 -50 -30 -59 -30 -63 -17 -76 8 -7 14
-11 15 -10 0 2 3 23 6 48 3 25 10 48 15 51 5 4 8 17 5 30 -2 13 -5 16 -6 7z"/>
<path d="M4410 3380 c-9 -6 -10 -10 -3 -10 6 0 15 5 18 10 8 12 4 12 -15 0z"/>
<path d="M8461 3345 c-15 -42 -24 -44 -40 -8 -10 22 -14 24 -22 12 -8 -12 -10
-12 -18 1 -8 12 -14 11 -36 -10 -15 -14 -23 -30 -20 -39 4 -11 0 -10 -15 4
-19 18 -21 18 -40 0 -19 -17 -20 -17 -14 -2 3 10 1 24 -6 31 -10 13 -14 12
-32 -6 -23 -23 -16 -37 8 -17 15 12 17 12 12 -1 -2 -8 -19 -16 -36 -18 -26 -3
-32 -8 -31 -25 1 -17 2 -18 6 -4 2 9 9 17 15 17 5 0 8 -7 4 -15 -3 -8 -1 -15
5 -15 6 0 7 -4 4 -10 -3 -5 0 -10 7 -11 7 0 4 -4 -7 -9 -16 -7 -17 -9 -3 -9 9
-1 23 6 31 14 13 13 16 13 21 0 3 -10 -3 -17 -19 -21 -36 -9 -31 -27 5 -19 19
4 30 3 30 -4 0 -6 11 -11 25 -11 14 0 25 -4 25 -10 0 -5 -4 -10 -10 -10 -5 0
-10 -4 -10 -10 0 -5 13 -10 29 -10 17 0 33 -4 36 -10 3 -5 20 -8 38 -6 18 3
42 5 55 5 12 1 21 7 20 14 -2 7 7 11 25 10 15 -1 27 2 27 8 0 5 -12 9 -27 10
l-28 1 28 10 c28 10 36 33 15 41 -10 4 -10 6 0 6 6 1 12 14 12 30 0 21 -6 31
-22 36 l-23 8 23 4 c31 6 32 63 1 63 -16 0 -20 -5 -16 -20 3 -11 1 -20 -3 -20
-5 0 -11 -8 -13 -17 -3 -10 -2 3 0 30 7 56 2 60 -16 12z m-51 -205 c0 -5 -8
-10 -17 -10 -15 0 -16 2 -3 10 19 12 20 12 20 0z"/>
<path d="M8160 3310 c0 -5 5 -10 11 -10 5 0 7 5 4 10 -3 6 -8 10 -11 10 -2 0
-4 -4 -4 -10z"/>
<path d="M6590 3296 c0 -17 34 -39 44 -29 3 3 6 1 6 -5 0 -7 4 -12 10 -12 18
0 0 26 -30 44 -26 15 -30 15 -30 2z"/>
<path d="M6830 3126 c0 -9 4 -16 8 -16 5 0 18 -9 30 -20 28 -26 92 -62 92 -51
0 11 -34 41 -46 41 -6 0 -19 8 -30 18 -47 42 -54 46 -54 28z"/>
<path d="M6977 3034 c-13 -14 -7 -22 24 -33 41 -14 44 -14 29 4 -7 9 -15 13
-18 10 -3 -2 -10 2 -16 11 -6 8 -15 12 -19 8z"/>
<path d="M4816 2992 c-3 -6 -1 -14 5 -17 14 -9 20 -2 10 14 -6 8 -11 9 -15 3z"/>
<path d="M6126 2907 c-28 -37 -32 -47 -16 -47 6 0 15 12 21 27 6 15 15 31 22
35 6 4 9 10 5 13 -3 4 -18 -9 -32 -28z"/>
<path d="M4908 2923 c7 -3 16 -2 19 1 4 3 -2 6 -13 5 -11 0 -14 -3 -6 -6z"/>
<path d="M7110 2910 c0 -5 5 -10 11 -10 5 0 7 5 4 10 -3 6 -8 10 -11 10 -2 0
-4 -4 -4 -10z"/>
<path d="M4945 2901 c-3 -5 -1 -12 5 -16 5 -3 10 1 10 9 0 18 -6 21 -15 7z"/>
<path d="M7143 2865 c7 -13 23 -30 37 -37 14 -7 27 -15 30 -18 12 -12 114 -59
118 -55 3 3 -3 14 -13 25 -10 11 -20 18 -23 15 -7 -7 -116 55 -131 76 -19 27
-31 23 -18 -6z"/>
<path d="M6860 2800 c0 -5 5 -10 10 -10 6 0 10 5 10 10 0 6 -4 10 -10 10 -5 0
-10 -4 -10 -10z"/>
<path d="M6018 2765 c-6 -28 6 -34 16 -9 8 22 7 34 -3 34 -5 0 -11 -11 -13
-25z"/>
<path d="M7363 2737 c9 -8 17 -20 17 -26 0 -7 5 -9 10 -6 13 8 4 22 -23 35
-20 10 -20 10 -4 -3z"/>
<path d="M6140 2730 c0 -5 5 -10 10 -10 6 0 10 5 10 10 0 6 -4 10 -10 10 -5 0
-10 -4 -10 -10z"/>
<path d="M5981 2703 c-12 -16 -26 -34 -32 -41 -6 -7 -9 -15 -7 -18 6 -5 48 35
48 46 0 5 7 16 16 24 8 9 11 16 5 16 -5 0 -19 -12 -30 -27z"/>
<path d="M6757 2719 c8 -8 16 -8 30 0 16 9 14 10 -11 11 -22 0 -27 -3 -19 -11z"/>
<path d="M5115 2711 c-3 -5 -1 -12 5 -16 5 -3 10 1 10 9 0 18 -6 21 -15 7z"/>
<path d="M6810 2666 c0 -2 7 -7 16 -10 8 -3 12 -2 9 4 -6 10 -25 14 -25 6z"/>
<path d="M6080 2649 c0 -5 5 -7 10 -4 6 3 10 8 10 11 0 2 -4 4 -10 4 -5 0 -10
-5 -10 -11z"/>
<path d="M5897 2619 c-9 -6 -15 -14 -12 -19 7 -12 43 -1 49 16 6 16 -11 18
-37 3z"/>
<path d="M7490 2597 c0 -9 5 -17 10 -17 6 0 11 -12 11 -27 2 -24 2 -25 6 -6 2
13 -3 33 -11 45 -13 18 -16 19 -16 5z"/>
<path d="M5856 2553 c-13 -13 -20 -15 -23 -5 -8 20 -25 13 -18 -8 4 -11 2 -20
-4 -20 -6 0 -11 -9 -11 -20 0 -25 17 -26 25 -1 3 11 12 22 20 25 7 2 19 14 25
25 13 26 10 26 -14 4z"/>
<path d="M5980 2519 c0 -5 5 -7 10 -4 6 3 10 8 10 11 0 2 -4 4 -10 4 -5 0 -10
-5 -10 -11z"/>
<path d="M7560 2495 c1 -26 2 -28 11 -12 8 14 8 22 0 30 -8 8 -11 3 -11 -18z"/>
<path d="M5767 2495 c3 -8 9 -12 14 -9 12 7 11 11 -5 17 -10 4 -13 1 -9 -8z"/>
<path d="M7592 2480 c0 -14 2 -19 5 -12 2 6 2 18 0 25 -3 6 -5 1 -5 -13z"/>
<path d="M7640 2439 c0 -8 12 -25 25 -38 32 -30 32 -14 0 23 -14 17 -25 23
-25 15z"/>
<path d="M5675 2430 c-3 -5 -2 -10 4 -10 5 0 13 5 16 10 3 6 2 10 -4 10 -5 0
-13 -4 -16 -10z"/>
<path d="M6501 2424 c0 -11 3 -14 6 -6 3 7 2 16 -1 19 -3 4 -6 -2 -5 -13z"/>
<path d="M7700 2372 c0 -10 33 -42 44 -42 9 0 -27 49 -36 50 -5 0 -8 -4 -8 -8z"/>
<path d="M7811 2247 c9 -7 18 -19 22 -27 5 -13 6 -13 6 1 1 17 -18 39 -33 39
-6 0 -4 -6 5 -13z"/>
<path d="M6435 2211 c-3 -5 -1 -12 5 -16 5 -3 10 1 10 9 0 18 -6 21 -15 7z"/>
<path d="M7860 2192 c0 -7 7 -15 15 -18 8 -4 15 -10 15 -16 0 -12 29 -42 35
-36 3 3 -11 22 -30 44 -19 21 -34 33 -35 26z"/>
<path d="M6010 2116 c0 -9 5 -16 10 -16 6 0 10 4 10 9 0 6 -4 13 -10 16 -5 3
-10 -1 -10 -9z"/>
<path d="M7940 2095 c0 -14 38 -46 44 -37 3 5 -5 17 -19 26 -14 9 -25 14 -25
11z"/>
<path d="M7980 2031 c0 -5 7 -11 14 -14 10 -4 13 -1 9 9 -6 15 -23 19 -23 5z"/>
<path d="M6305 2020 c-3 -5 -1 -10 4 -10 6 0 11 5 11 10 0 6 -2 10 -4 10 -3 0
-8 -4 -11 -10z"/>
<path d="M8020 1991 c0 -6 5 -13 10 -16 6 -3 10 1 10 9 0 9 -4 16 -10 16 -5 0
-10 -4 -10 -9z"/>
<path d="M8075 1930 c3 -5 8 -10 11 -10 2 0 4 5 4 10 0 6 -5 10 -11 10 -5 0
-7 -4 -4 -10z"/>
<path d="M4636 1892 c-3 -6 -1 -14 5 -17 15 -10 25 3 12 16 -7 7 -13 7 -17 1z"/>
<path d="M4830 1771 c0 -6 5 -13 10 -16 6 -3 10 1 10 9 0 9 -4 16 -10 16 -5 0
-10 -4 -10 -9z"/>
<path d="M4690 1760 c0 -4 7 -10 15 -14 8 -3 15 -12 15 -21 0 -8 5 -15 11 -15
5 0 7 -4 4 -10 -10 -16 11 -12 25 5 7 8 15 13 19 11 4 -3 18 4 31 15 20 14 21
19 8 19 -9 0 -20 -4 -23 -10 -10 -16 -65 -13 -59 4 3 9 -4 15 -20 18 -14 3
-26 2 -26 -2z"/>
<path d="M4975 1760 c-3 -5 -1 -10 4 -10 6 0 11 5 11 10 0 6 -2 10 -4 10 -3 0
-8 -4 -11 -10z"/>
<path d="M4770 1690 c0 -5 5 -10 10 -10 6 0 10 5 10 10 0 6 -4 10 -10 10 -5 0
-10 -4 -10 -10z"/>
<path d="M6090 1659 c0 -5 5 -7 10 -4 6 3 10 8 10 11 0 2 -4 4 -10 4 -5 0 -10
-5 -10 -11z"/>
<path d="M6055 1600 c-3 -5 -1 -10 4 -10 6 0 11 5 11 10 0 6 -2 10 -4 10 -3 0
-8 -4 -11 -10z"/>
<path d="M7222 1530 c0 -14 2 -19 5 -12 2 6 2 18 0 25 -3 6 -5 1 -5 -13z"/>
<path d="M6020 1530 c0 -5 4 -10 9 -10 6 0 13 5 16 10 3 6 -1 10 -9 10 -9 0
-16 -4 -16 -10z"/>
<path d="M7243 1515 c-8 -22 6 -33 17 -15 13 20 12 30 0 30 -6 0 -13 -7 -17
-15z"/>
<path d="M5596 1493 c-6 -14 -5 -15 5 -6 7 7 10 15 7 18 -3 3 -9 -2 -12 -12z"/>
<path d="M7201 1474 c0 -11 3 -14 6 -6 3 7 2 16 -1 19 -3 4 -6 -2 -5 -13z"/>
<path d="M7275 1479 c-4 -6 -5 -12 -2 -15 2 -3 7 2 10 11 7 17 1 20 -8 4z"/>
<path d="M7165 1470 c4 -6 11 -8 16 -5 14 9 11 15 -7 15 -8 0 -12 -5 -9 -10z"/>
<path d="M5970 1408 c0 -9 5 -20 10 -23 13 -8 13 5 0 25 -8 13 -10 13 -10 -2z"/>
<path d="M7300 1240 c0 -15 7 -20 25 -20 l25 0 -20 20 c-11 11 -22 20 -25 20
-3 0 -5 -9 -5 -20z"/>
<path d="M8210 1249 c0 -6 -6 -9 -14 -6 -17 7 -28 -28 -19 -61 6 -23 23 -30
23 -9 0 6 10 -1 21 -16 16 -21 24 -25 35 -17 14 12 11 69 -4 79 -5 3 -11 14
-15 24 -7 19 -27 24 -27 6z"/>
<path d="M5308 1223 c7 -3 16 -2 19 1 4 3 -2 6 -13 5 -11 0 -14 -3 -6 -6z"/>
<path d="M5410 1226 c0 -2 7 -7 16 -10 8 -3 12 -2 9 4 -6 10 -25 14 -25 6z"/>
<path d="M7265 1201 c-3 -5 -1 -12 5 -16 5 -3 10 1 10 9 0 18 -6 21 -15 7z"/>
<path d="M5260 1157 c0 -19 16 -31 24 -18 3 5 -1 14 -9 21 -12 10 -15 10 -15
-3z"/>
<path d="M5805 1160 c3 -5 12 -10 20 -10 7 0 15 -6 18 -12 2 -7 8 -10 12 -6
10 10 -20 38 -40 38 -9 0 -13 -4 -10 -10z"/>
<path d="M7250 1150 c0 -5 5 -10 10 -10 6 0 10 5 10 10 0 6 -4 10 -10 10 -5 0
-10 -4 -10 -10z"/>
<path d="M7450 1140 c0 -5 7 -10 16 -10 8 0 12 5 9 10 -3 6 -10 10 -16 10 -5
0 -9 -4 -9 -10z"/>
<path d="M5837 1104 c-4 -4 -7 -14 -7 -23 0 -11 3 -12 11 -4 6 6 10 16 7 23
-2 6 -7 8 -11 4z"/>
<path d="M5320 1050 c0 -5 4 -10 9 -10 6 0 13 5 16 10 3 6 -1 10 -9 10 -9 0
-16 -4 -16 -10z"/>
<path d="M7460 589 c0 -8 -10 -9 -31 -5 -26 5 -28 4 -16 -8 16 -16 41 -16 58
1 8 8 8 13 0 17 -6 4 -11 2 -11 -5z"/>
<path d="M7355 580 c3 -5 13 -10 21 -10 8 0 14 5 14 10 0 6 -9 10 -21 10 -11
0 -17 -4 -14 -10z"/>
<path d="M7338 552 c-20 -2 -30 -10 -34 -28 -4 -16 -12 -23 -20 -20 -15 6 -20
-9 -6 -18 11 -7 27 6 35 27 7 18 47 24 47 7 0 -5 -7 -7 -15 -4 -9 4 -19 -4
-27 -21 -8 -18 -17 -25 -30 -22 -23 6 -68 -14 -68 -30 0 -7 -4 -13 -9 -13 -5
0 -12 -12 -16 -27 -4 -16 -10 -22 -12 -15 -8 20 -32 14 -26 -7 3 -12 -4 -24
-19 -35 -12 -9 -22 -19 -21 -21 7 -15 -13 -67 -29 -76 -17 -9 -43 -55 -40 -71
1 -4 -7 -10 -18 -13 -11 -4 -20 -12 -20 -20 0 -22 -24 -61 -57 -91 -54 -49
-37 -55 138 -52 119 2 153 6 151 16 -1 7 5 15 13 18 8 4 15 14 15 24 0 10 7
23 15 30 8 7 15 23 15 35 0 12 9 34 21 49 11 14 17 30 14 36 -3 6 1 13 10 16
10 4 13 13 9 26 -4 14 -2 18 5 14 7 -4 11 1 11 13 0 12 4 21 10 21 5 0 13 12
16 28 4 15 11 33 17 40 6 8 5 12 -5 12 -16 0 -23 76 -8 85 5 3 7 12 4 19 -5
12 28 30 48 27 4 0 4 7 1 16 -5 12 -8 13 -11 4 -3 -9 -9 -8 -23 5 -21 18 -35
21 -81 16z"/>
<path d="M7425 481 c-3 -5 -1 -12 5 -16 5 -3 10 1 10 9 0 18 -6 21 -15 7z"/>
<path d="M7430 414 c0 -8 5 -12 10 -9 6 4 8 11 5 16 -9 14 -15 11 -15 -7z"/>
</g>
</svg>
